<?xml version="1.0" encoding="UTF-8"?>
<svg id="_图层_1" data-name="图层 1" xmlns="http://www.w3.org/2000/svg" viewBox="0 0 400 400">
  <defs>
    <style>
      .cls-1 {
        stroke: #040000;
        stroke-width: .6px;
      }

      .cls-1, .cls-2 {
        fill: none;
        stroke-miterlimit: 10;
      }

      .cls-2 {
        stroke: #323333;
        stroke-linecap: round;
        stroke-width: 1.5px;
      }

      .cls-3 {
        fill: #323333;
        stroke-width: 0px;
      }
    </style>
  </defs>
  <line class="cls-2" x1="212.34" y1="215.78" x2="256.36" y2="171.77"/>
  <line class="cls-2" x1="257.59" y1="215.78" x2="213.57" y2="171.77"/>
  <rect class="cls-1" x="120.41" y="80" width="179.59" height="179.59" rx="5.71" ry="5.71"/>
  <path class="cls-3" d="M197.96,106.1h-.6c-9.7,0-17.39,0-23.46.73-6.24.73-11.38,2.28-15.67,5.81-1.45,1.18-2.79,2.52-3.99,3.98-3.52,4.29-5.07,9.42-5.81,15.67-.71,6.08-.71,13.77-.71,23.45v.59c0,9.7,0,17.38.73,23.46.73,6.24,2.28,11.38,5.81,15.67,1.18,1.45,2.52,2.79,3.98,3.98,4.07,3.34,8.9,4.9,14.71,5.69,5.68.76,12.78.83,21.63.84h.06c2.52,0,4.55-2.06,4.54-4.58,0-.03,0-.06,0-.08v-18.03c0-2.51-2.03-4.54-4.54-4.54s-4.54,2.03-4.54,4.54v13.61c-6.72-.05-11.83-.19-15.94-.74-4.89-.66-7.87-1.83-10.16-3.71-1-.82-1.91-1.73-2.72-2.72-1.97-2.41-3.18-5.59-3.81-10.98-.64-5.48-.65-12.62-.65-22.69s0-17.21.66-22.69c.64-5.38,1.83-8.57,3.81-10.98.82-1,1.73-1.91,2.72-2.72,2.4-1.97,5.58-3.18,10.97-3.81,5.48-.64,12.63-.65,22.7-.65s17.21,0,22.68.66c5.38.64,8.57,1.83,10.99,3.81.99.82,1.91,1.73,2.72,2.72,1.87,2.27,3.04,5.27,3.7,10.15.54,4.11.7,9.23.74,15.94h-13.61c-2.51,0-4.54,2.03-4.54,4.54s2.03,4.54,4.54,4.54h18.17c2.51,0,4.54-2.03,4.54-4.54-.02-8.88-.07-15.99-.84-21.7-.78-5.81-2.35-10.63-5.69-14.7-1.19-1.46-2.52-2.79-3.98-3.99-4.29-3.52-9.43-5.07-15.67-5.81-6.08-.72-13.77-.72-23.46-.72Z"/>
  <path class="cls-3" d="M210.12,157.51c2.49-.33,4.24-2.61,3.91-5.09-.33-2.49-2.61-4.24-5.09-3.91-4.94.64-9.15,1.94-12.61,4.79-3.5,2.89-5.27,6.56-6.14,10.93-.56,2.44.96,4.88,3.4,5.44,2.44.56,4.88-.96,5.44-3.4.02-.08.04-.17.05-.25.58-2.91,1.53-4.49,3.01-5.7,1.61-1.33,3.9-2.26,8.03-2.8ZM259.03,148.51c-2.49-.33-4.77,1.43-5.09,3.91-.33,2.49,1.43,4.77,3.91,5.09,4.12.54,6.42,1.47,8.03,2.8,1.48,1.22,2.42,2.8,3.01,5.7.42,2.47,2.77,4.13,5.24,3.71,2.47-.42,4.13-2.77,3.71-5.24-.01-.08-.03-.17-.05-.25-.87-4.36-2.63-8.04-6.14-10.93-3.46-2.84-7.67-4.14-12.61-4.79h0ZM277.87,183.27c0-2.51-2.03-4.54-4.54-4.54s-4.54,2.03-4.54,4.54v18.16c0,2.51,2.03,4.54,4.54,4.54s4.54-2.03,4.54-4.54v-18.16ZM199.09,218.7c-.56-2.44-3-3.97-5.44-3.4-2.35.54-3.86,2.82-3.45,5.19.87,4.36,2.63,8.04,6.14,10.92,3.46,2.85,7.67,4.14,12.62,4.79,2.5.25,4.72-1.58,4.96-4.07.24-2.38-1.42-4.54-3.78-4.93-4.12-.54-6.43-1.47-8.04-2.8-1.48-1.22-2.42-2.8-3-5.7h0ZM277.79,220.49c.56-2.44-.96-4.88-3.4-5.44-2.44-.56-4.88.96-5.44,3.4-.02.08-.04.17-.05.25-.59,2.91-1.53,4.49-3.01,5.7-1.61,1.33-3.9,2.25-8.03,2.8-2.47.41-4.15,2.74-3.75,5.21.39,2.36,2.54,4.02,4.93,3.78,4.94-.64,9.15-1.93,12.62-4.79,3.5-2.89,5.27-6.56,6.14-10.92h0ZM224.9,227.17c-2.51,0-4.54,2.03-4.54,4.54s2.03,4.54,4.54,4.54h18.16c2.51,0,4.54-2.03,4.54-4.54s-2.03-4.54-4.54-4.54h-18.16Z"/>
</svg>