<?xml version="1.0" encoding="UTF-8"?>
<svg id="_图层_1" data-name="图层 1" xmlns="http://www.w3.org/2000/svg" viewBox="0 0 400 400">
  <defs>
    <style>
      .cls-1 {
        fill: none;
        stroke: #040000;
        stroke-miterlimit: 10;
        stroke-width: .6px;
      }

      .cls-2 {
        fill: #323333;
        stroke-width: 0px;
      }
    </style>
  </defs>
  <rect class="cls-1" x="119.92" y="80.31" width="180.08" height="178.99" rx="5.71" ry="5.71"/>
  <path class="cls-2" d="M279.28,178.06h-4.99v-18.34h-10.9l-15.09-25.89h-61.99s-15.09,25.89-15.09,25.89h-30.74v18.34h-3.77v10.35h3.77v6.47h21.64c1.22,6.2,6.71,10.89,13.3,10.89s12.08-4.68,13.3-10.89h40.12c1.22,6.2,6.71,10.89,13.31,10.89s12.08-4.68,13.3-10.89h18.86v-6.47h4.99v-10.35h-.01ZM175.42,200.59c-4.61,0-8.35-3.73-8.35-8.3s3.75-8.3,8.35-8.3,8.35,3.73,8.35,8.3-3.75,8.3-8.35,8.3ZM242.13,200.59c-4.61,0-8.35-3.73-8.35-8.3s3.74-8.3,8.35-8.3,8.35,3.73,8.35,8.3-3.74,8.3-8.35,8.3ZM269.08,189.71h-13.65c-1.21-6.2-6.71-10.89-13.3-10.89s-12.08,4.68-13.31,10.89h-40.12c-1.22-6.2-6.71-10.89-13.3-10.89s-12.08,4.68-13.3,10.89h-16.43v-24.81h28.53l15.09-25.89h55.98l15.08,25.89h8.69v24.81h.02ZM244.73,148.37l9.32,15.97h-9.32v-15.97ZM214.97,144.18h24.55v20.17h-24.55v-20.17ZM192.32,144.18h17.46v20.17h-29.22s11.76-20.17,11.76-20.17Z"/>
</svg>