<?xml version="1.0" encoding="UTF-8"?>
<svg id="_图层_1" data-name="图层 1" xmlns="http://www.w3.org/2000/svg" viewBox="0 0 400 400">
  <defs>
    <style>
      .cls-1 {
        fill: none;
        stroke: #040000;
        stroke-miterlimit: 10;
        stroke-width: .6px;
      }

      .cls-2 {
        fill: #323333;
        stroke-width: 0px;
      }
    </style>
  </defs>
  <rect class="cls-1" x="119.7" y="79.7" width="180.3" height="180.3" rx="5.71" ry="5.71"/>
  <path class="cls-2" d="M187.14,203.08c0,13.29,10.77,24.07,24.07,24.07,2.42,0,4.39-1.96,4.39-4.39h0c0-2.42-1.96-4.39-4.39-4.39h0c-8.46-.59-14.85-7.92-14.27-16.38.53-7.65,6.62-13.74,14.27-14.27h56.4c2.42,0,4.39-1.96,4.39-4.39,0-2.42-1.96-4.39-4.39-4.39h0s-56.4,0-56.4,0c-13.3.04-24.07,10.84-24.07,24.14ZM178.8,234.82c2.42,0,4.39-1.96,4.39-4.39,0-2.42-1.96-4.39-4.39-4.39-12.71.72-23.59-9-24.3-21.71-.72-12.71,9-23.59,21.71-24.3.86-.05,1.73-.05,2.6,0,2.42,0,4.39-1.96,4.39-4.39h0c0-2.42-1.96-4.39-4.39-4.39h0c-17.55-.84-32.47,12.7-33.31,30.26-.84,17.55,12.7,32.47,30.26,33.31,1.02.05,2.03.05,3.05,0ZM181,153.12h69.05c2.42,0,4.39-1.96,4.39-4.39h0c0-2.42-1.96-4.39-4.39-4.39h-68.9c-8.48,0-15.36-6.88-15.36-15.37,0-8.48,6.88-15.35,15.36-15.36,2.42,0,4.39-1.96,4.39-4.39,0-2.42-1.96-4.39-4.39-4.39-13.33,0-24.14,10.81-24.14,24.14,0,13.33,10.81,24.14,24.14,24.14h-.15Z"/>
</svg>