<?xml version="1.0" encoding="UTF-8"?>
<svg id="_图层_1" data-name="图层 1" xmlns="http://www.w3.org/2000/svg" viewBox="0 0 400 400">
  <defs>
    <style>
      .cls-1 {
        fill: none;
        stroke: #040000;
        stroke-miterlimit: 10;
        stroke-width: .6px;
      }

      .cls-2 {
        fill: #323333;
        stroke-width: 0px;
      }
    </style>
  </defs>
  <rect class="cls-1" x="119.96" y="80.4" width="179.6" height="179.6" rx="5.71" ry="5.71"/>
  <path class="cls-2" d="M251.1,154.93c-.77-.32-1.62-.32-2.39,0-.77.32-1.37.92-1.69,1.7-.32.77-.32,1.62,0,2.4.32.77.92,1.37,1.69,1.69,14.48,5.99,23.13,15.27,23.13,24.81,0,17.32-26.53,31.42-59.13,31.42s-59.13-14.1-59.13-31.42c0-8.94,7.41-17.54,20.34-23.59,1.56-.73,2.24-2.6,1.51-4.16-.53-1.13-1.66-1.8-2.84-1.8-.44,0-.9.09-1.32.3-15.21,7.12-23.94,17.78-23.94,29.25,0,21.13,28.72,37.68,65.38,37.68s65.38-16.55,65.38-37.68c0-12.34-9.84-23.49-27-30.6Z"/>
  <path class="cls-2" d="M212.72,225.17c-37.76,0-67.35-17.41-67.35-39.64,0-12.26,9.14-23.58,25.07-31.03,2.43-1.14,5.62,0,6.77,2.45.58,1.23.64,2.62.18,3.89-.47,1.28-1.4,2.31-2.63,2.88-12.2,5.71-19.2,13.66-19.2,21.81,0,16.24,25.64,29.46,57.16,29.46s57.16-13.21,57.16-29.46c0-8.72-8.19-17.32-21.92-23-1.26-.53-2.24-1.51-2.76-2.76-.52-1.26-.52-2.64,0-3.9.52-1.26,1.5-2.23,2.75-2.76,1.26-.51,2.64-.52,3.9,0h0c17.93,7.43,28.21,19.24,28.21,32.42,0,22.23-29.58,39.64-67.35,39.64h0ZM172.6,157.94c-.17,0-.33.04-.48.11-14.5,6.79-22.82,16.8-22.82,27.48,0,20.03,27.86,35.71,63.42,35.71s63.42-15.69,63.42-35.71c0-11.51-9.4-22-25.78-28.79-.3-.12-.6-.12-.9,0-.28.12-.5.34-.62.63-.12.28-.12.61,0,.89.12.29.34.51.64.63,15.24,6.3,24.34,16.26,24.34,26.63,0,18.41-27.41,33.38-61.09,33.38s-61.09-14.97-61.09-33.38c0-9.73,7.82-18.98,21.47-25.36.28-.13.5-.37.6-.66.1-.29.09-.61-.04-.89-.19-.41-.61-.67-1.06-.67Z"/>
  <path class="cls-2" d="M229.56,113.33c-.1-.01-.21-.02-.32-.02-.92,0-1.79.45-2.33,1.21-.6.85-.68,1.96-.22,2.89l.04.08c7.02,15.58,8.38,27.72,4.15,37.1-7.73,17.15-9.08,30.81-4.15,41.76.64,1.28,2.27,1.86,3.66,1.22,1.39-.62,2.04-2.24,1.47-3.65-4.19-9.28-2.83-21.41,4.19-36.99,4.94-10.95,3.58-24.61-4.15-41.76-.43-1.04-1.31-1.71-2.35-1.83Z"/>
  <path class="cls-2" d="M229.23,199.78c-1.75,0-3.44-.95-4.25-2.56-5.21-11.57-3.86-25.75,4.12-43.45,3.98-8.84,2.62-20.45-4.15-35.48-.78-1.6-.64-3.47.37-4.9,1-1.42,2.72-2.2,4.44-2.02h.03c1.77.2,3.24,1.34,3.94,3.04,7.95,17.63,9.3,31.82,4.12,43.32-6.78,15.04-8.15,26.61-4.19,35.38,1,2.47-.09,5.18-2.45,6.25-.62.28-1.29.42-1.97.42ZM229.25,115.27c-.29,0-.55.14-.72.38-.18.26-.21.61-.07.9,7.33,16.26,8.68,28.92,4.22,38.85-7.48,16.61-8.84,29.74-4.15,40.14.12.24.61.45,1.06.24.44-.2.64-.68.46-1.13-4.41-9.78-3.04-22.41,4.22-38.54,4.69-10.41,3.33-23.54-4.15-40.15-.17-.42-.43-.64-.76-.68h-.12Z"/>
  <path class="cls-2" d="M189.38,154.58c-7.73,17.15-9.08,30.8-4.15,41.76.64,1.28,2.27,1.85,3.66,1.23,1.4-.63,2.04-2.23,1.47-3.65-4.19-9.28-2.83-21.42,4.19-36.99,4.93-10.95,3.58-24.61-4.15-41.76-.64-1.3-2.27-1.89-3.68-1.26-1.39.62-2.04,2.22-1.48,3.63,7,15.56,8.35,27.68,4.13,37.05h0Z"/>
  <path class="cls-2" d="M187.74,199.77c-1.76,0-3.45-.95-4.26-2.55-5.22-11.57-3.86-25.76,4.11-43.45,3.98-8.83,2.63-20.42-4.13-35.44-.98-2.47.12-5.17,2.46-6.23,2.33-1.05,5.13-.07,6.24,2.18,8,17.75,9.36,31.94,4.18,43.43-6.77,15.04-8.15,26.61-4.19,35.38,1,2.47-.09,5.18-2.45,6.25-.64.28-1.31.42-1.97.42ZM187.92,115.61c-.13,0-.26.03-.39.08-.44.2-.63.68-.46,1.12,7.21,16.02,8.56,28.66,4.09,38.58h0c-7.48,16.6-8.84,29.73-4.15,40.15.12.24.62.44,1.08.24.43-.19.62-.68.45-1.12-4.41-9.78-3.04-22.41,4.22-38.53,4.69-10.41,3.33-23.55-4.15-40.15-.1-.2-.37-.36-.69-.36h0Z"/>
  <path class="cls-2" d="M205.98,117.48c7.02,15.59,8.38,27.72,4.15,37.1-7.73,17.15-9.08,30.81-4.15,41.76.43,1.06,1.32,1.74,2.35,1.86,1.04.1,2.05-.34,2.65-1.2.6-.85.68-1.97.21-2.9-4.27-9.48-2.92-21.61,4.11-37.19,4.93-10.95,3.58-24.61-4.15-41.76-.43-1.08-1.32-1.76-2.36-1.88-.11-.01-.22-.02-.33-.02-.92,0-1.79.45-2.33,1.22-.6.86-.68,1.97-.21,2.91l.05.1Z"/>
  <path class="cls-2" d="M208.62,200.18c-.16,0-.32,0-.47-.02-1.82-.21-3.29-1.36-3.99-3.08-5.15-11.42-3.79-25.61,4.18-43.3,3.98-8.84,2.63-20.44-4.14-35.48l-.04-.09c-.77-1.52-.64-3.4.38-4.85,1.01-1.44,2.74-2.21,4.5-2.02,1.78.21,3.26,1.37,3.95,3.1,7.94,17.61,9.3,31.8,4.12,43.29-6.78,15.04-8.12,26.67-4.11,35.57.75,1.51.62,3.39-.39,4.83-.9,1.29-2.4,2.05-3.98,2.05ZM208.55,115.23c-.38,0-.64.14-.8.37-.18.27-.21.61-.06.9l.09.18c7.26,16.13,8.62,28.79,4.15,38.71-7.48,16.6-8.84,29.73-4.15,40.14.18.45.45.68.79.72.29.03.63-.11.82-.37.18-.26.21-.6.06-.89-4.54-10.06-3.2-22.75,4.07-38.87,4.69-10.41,3.33-23.54-4.15-40.14-.14-.35-.36-.69-.8-.74,0,0-.01,0-.02,0h0Z"/>
</svg>