<?xml version="1.0" encoding="UTF-8"?>
<svg id="_图层_1" data-name="图层 1" xmlns="http://www.w3.org/2000/svg" viewBox="0 0 400 400">
  <defs>
    <style>
      .cls-1 {
        fill: none;
        stroke: #040000;
        stroke-miterlimit: 10;
        stroke-width: .6px;
      }

      .cls-2 {
        fill: #323333;
        stroke-width: 0px;
      }
    </style>
  </defs>
  <rect class="cls-1" x="120.02" y="80.31" width="179.69" height="179.69" rx="5.71" ry="5.71"/>
  <path class="cls-2" d="M248.66,209.64c3.54,6.14,1.44,14-4.7,17.55-6.14,3.54-14,1.44-17.55-4.7-3.54-6.14-1.44-14,4.7-17.55,6.14-3.54,14-1.44,17.55,4.7ZM195.65,222.49c-3.54,6.14-11.41,8.25-17.55,4.7-6.14-3.54-8.25-11.41-4.7-17.55,3.54-6.14,11.41-8.25,17.55-4.7,6.14,3.54,8.25,11.41,4.7,17.55ZM158.01,157.31c7.09,0,12.85,5.76,12.85,12.85s-5.76,12.85-12.85,12.85-12.85-5.76-12.85-12.85,5.76-12.85,12.85-12.85h0ZM264.04,157.31c7.09,0,12.85,5.76,12.85,12.85s-5.76,12.85-12.85,12.85-12.85-5.76-12.85-12.85,5.76-12.85,12.85-12.85ZM248.66,130.67c-3.54,6.14-11.41,8.25-17.55,4.7-6.14-3.54-8.25-11.41-4.7-17.55,3.54-6.14,11.41-8.25,17.55-4.7,6.14,3.54,8.25,11.41,4.7,17.55h0ZM195.65,117.82c3.54,6.14,1.44,14-4.7,17.55-6.14,3.54-14,1.44-17.55-4.7-3.54-6.14-1.44-14,4.7-17.55,6.14-3.54,14-1.44,17.55,4.7Z"/>
  <path class="cls-2" d="M177.54,135.03c-2.5-1.64-4.44-4.15-5.31-7.02-1.49-4.89.21-10.62,4.37-13.87,2.21-1.72,5-2.7,7.8-2.73.05,0,.1,0,.16,0,3.89.03,7.69,1.88,10.08,4.93,1.51,1.93,2.37,4.3,2.58,6.74h27.53c.07-.76.21-1.52.41-2.26,1.43-5.15,6.32-9.17,11.87-9.39.21,0,.41-.01.62-.01,5.08.05,9.94,3.33,11.83,8.13,1.51,3.85,1.03,8.4-1.26,11.84-.78,1.17-1.76,2.18-2.87,3.01l13.82,23.93c1.51-.63,3.14-.98,4.79-1h.17c4.64.04,9.13,2.77,11.28,6.86,1.85,3.5,1.95,7.89.24,11.48-2.4,5.06-8.32,8.22-14.04,7.12-.84-.16-1.67-.41-2.46-.75l-13.78,23.88c.86.65,1.62,1.41,2.29,2.25,4.08,5.22,3.46,13.62-2.2,18.03-3.43,2.68-8.26,3.43-12.34,1.94-3.71-1.36-6.71-4.53-7.86-8.31-.25-.84-.42-1.7-.49-2.57h-27.47c-.2,2.11-.9,4.18-2.07,5.94-3.29,4.95-10.25,7.11-15.87,4.63-3.01-1.33-5.47-3.85-6.71-6.9-1.07-2.61-1.25-5.58-.49-8.3.83-2.98,2.82-5.59,5.42-7.29l-13.74-23.8c-2.49,1.27-5.39,1.78-8.24,1.24-3.95-.76-7.46-3.49-9.18-7.12-1.7-3.58-1.61-7.97.24-11.48,2.15-4.08,6.6-6.82,11.28-6.86h.17c2,.02,3.97.54,5.74,1.45l13.71-23.74h0ZM178.51,206.99c-.96.63-1.83,1.41-2.54,2.31-2.4,3.04-3.01,7.39-1.52,10.97,1.63,3.93,5.71,6.72,10.04,6.72,4.64,0,9.11-3.25,10.47-7.73.2-.65.33-1.32.4-2h-5.07c-.13.62-.35,1.22-.67,1.77-1.63,2.82-5.23,3.78-8.05,2.16-2.82-1.63-3.78-5.23-2.16-8.05.4-.7.95-1.31,1.6-1.8l-2.51-4.35h0ZM244.4,207.59l-2.57,4.45c.31.33.58.7.81,1.09,1.63,2.82.66,6.42-2.16,8.05-2.82,1.63-6.42.66-8.05-2.16-.32-.55-.54-1.14-.67-1.77h-5.07c.07.68.2,1.35.4,2,.97,3.19,3.49,5.87,6.62,7.04,2.64.98,5.65.9,8.22-.23,3.73-1.65,6.37-5.54,6.51-9.63.11-3.3-1.36-6.61-3.9-8.74-.05-.04-.09-.08-.14-.11h0ZM195.38,215.33c-.19-2.45-1.17-4.85-2.84-6.65-2.01-2.18-4.94-3.48-7.92-3.51h-.13c-1.47.01-2.93.33-4.27.91l2.53,4.39c1.52-.48,3.23-.34,4.72.52,1.65.95,2.67,2.59,2.9,4.35h5.02ZM197.24,125.01c-.21,3.53-1.79,7.01-4.81,9.37-3.43,2.68-8.26,3.43-12.34,1.94-.29-.11-.58-.22-.86-.35l-13.75,23.81c1.61,1.15,2.97,2.65,3.9,4.41,1.85,3.5,1.95,7.89.24,11.48-.93,1.96-2.38,3.63-4.15,4.88l13.78,23.86c1.48-.68,3.09-1.1,4.76-1.16.21,0,.41-.01.62-.01,5.08.05,9.94,3.33,11.83,8.13.5,1.27.78,2.61.85,3.96h27.42c.24-3.58,1.95-7.08,4.88-9.37,2.21-1.72,5-2.7,7.8-2.73h.16c2.16.02,4.29.59,6.17,1.63l13.68-23.7c-2.15-1.3-3.92-3.22-5-5.49-1.7-3.58-1.61-7.97.24-11.48,1.09-2.06,2.77-3.79,4.77-4.99l-13.72-23.77c-3.42,1.84-7.68,2.21-11.36.58-3.01-1.33-5.47-3.85-6.71-6.9-.53-1.31-.84-2.7-.93-4.11h-27.47,0ZM242.79,206.52c-1.6-.87-3.4-1.34-5.22-1.35h-.13c-2.98.03-5.91,1.33-7.92,3.51-1.67,1.81-2.66,4.2-2.84,6.65h5.02c.23-1.76,1.24-3.4,2.9-4.35,1.82-1.05,3.96-1.02,5.69-.11l2.51-4.35h0ZM162.89,160.41c-1.48-.74-3.14-1.14-4.8-1.16-.05,0-.09,0-.14,0-3.93.04-7.76,2.36-9.59,5.83-1.58,2.99-1.65,6.71-.21,9.75,2.35,4.95,8.72,7.63,14.05,5.41.23-.1.47-.2.69-.32l-2.52-4.36c-.74.33-1.55.49-2.36.49-3.25,0-5.89-2.64-5.89-5.89s2.64-5.89,5.89-5.89c.84,0,1.64.18,2.36.49l2.51-4.35ZM260.17,180.27c2.53.98,5.42,1.08,8.05-.02,3.5-1.46,6.13-4.86,6.63-8.62.46-3.42-.82-7.03-3.34-9.4-1.98-1.87-4.68-2.94-7.41-2.97-.05,0-.09,0-.14,0-1.31.01-2.61.28-3.83.76l2.55,4.42c.44-.1.89-.16,1.35-.16,3.25,0,5.89,2.64,5.89,5.89s-2.64,5.89-5.89,5.89c-.46,0-.91-.05-1.35-.16l-2.52,4.36ZM258.41,160.87c-1.67,1.01-3.07,2.44-3.99,4.16-1.6,2.99-1.7,6.74-.24,9.81.91,1.92,2.43,3.5,4.26,4.58l2.46-4.27c-1.65-1.04-2.75-2.89-2.75-4.98s1.1-3.94,2.75-4.98l-2.49-4.31ZM164.53,161.42l-2.54,4.4c1.18,1.08,1.91,2.63,1.91,4.34s-.74,3.27-1.91,4.34l2.54,4.39c2.28-1.73,3.9-4.37,4.29-7.21.49-3.48-.83-7.17-3.42-9.56-.28-.25-.56-.49-.86-.71ZM226.73,125.01c.16,2.46,1.11,4.89,2.88,6.75,2.03,2.14,4.95,3.41,7.9,3.41,1.84,0,3.65-.51,5.26-1.4l-2.48-4.3c-1.73.91-3.87.94-5.69-.11-1.65-.95-2.67-2.59-2.9-4.35h-4.96ZM190.36,125.01c-.23,1.76-1.24,3.4-2.9,4.35-1.49.86-3.2.99-4.72.52l-2.54,4.4c.14.06.29.12.43.17,2.65,1.01,5.69.94,8.28-.21,3.62-1.6,6.2-5.3,6.49-9.24h-5.04ZM195.37,123.08c-.31-2.74-1.68-5.36-3.79-7.15-1.94-1.64-4.49-2.56-7.02-2.58h-.13c-2.98.03-5.91,1.33-7.92,3.51-2.57,2.79-3.53,6.97-2.42,10.59.73,2.4,2.34,4.52,4.43,5.91l2.51-4.35c-.65-.48-1.2-1.09-1.6-1.8-1.63-2.82-.66-6.42,2.16-8.05,2.82-1.63,6.42-.66,8.05,2.16.32.55.54,1.15.67,1.77,0,0,5.07,0,5.07,0ZM244.36,132.68c1.68-1.35,2.98-3.16,3.61-5.24,1.27-4.15-.18-8.98-3.66-11.74-1.88-1.49-4.27-2.33-6.68-2.36h-.13c-3.28.02-6.49,1.57-8.52,4.13-1.27,1.6-2.01,3.57-2.22,5.6h5c.13-.62.35-1.22.67-1.77,1.63-2.82,5.23-3.78,8.05-2.16,2.82,1.63,3.78,5.23,2.16,8.05-.23.39-.5.76-.81,1.09l2.53,4.39h0Z"/>
  <path class="cls-2" d="M224.08,144.83l-30.02,25.9,16.09,5.13-12.57,19.65,32.12-23.79-16.87-4.97"/>
</svg>