<?xml version="1.0" encoding="UTF-8"?>
<svg id="_图层_1" data-name="图层 1" xmlns="http://www.w3.org/2000/svg" viewBox="0 0 400 400">
  <defs>
    <style>
      .cls-1 {
        fill: none;
        stroke: #040000;
        stroke-miterlimit: 10;
        stroke-width: .6px;
      }

      .cls-2 {
        fill: #323333;
        stroke-width: 0px;
      }
    </style>
  </defs>
  <rect class="cls-1" x="120.7" y="80.28" width="179.3" height="179.3" rx="5.71" ry="5.71"/>
  <path class="cls-2" d="M276.38,142.94v-2.51c0-.89-.72-1.61-1.61-1.61h-12.2l-78.06-30.66v-2.17c0-.89-.72-1.61-1.61-1.61h-2.51c-.89,0-1.61.72-1.61,1.61v3.21l-21.56,29.62h-11.28c-.89,0-1.61.72-1.61,1.61v2.52c0,.89.72,1.61,1.61,1.61h1.26v4.13c0,.89.72,1.61,1.61,1.61h14c.89,0,1.61-.72,1.61-1.61v-4.13h14.36v71.77h-14c-1.78,0-3.23,1.44-3.23,3.23v10.77c0,1.78,1.44,3.23,3.23,3.23h91.16c1.78,0,3.23-1.44,3.23-3.23v-10.77c0-1.78-1.44-3.23-3.23-3.23h-54.19v-71.77h54.55v28.71h-5.39c-1.78,0-3.23,1.44-3.23,3.23v7.9c0,1.78,1.44,3.23,3.23,3.23h16.51c1.78,0,3.23-1.44,3.23-3.23v-7.9c0-1.78-1.44-3.23-3.23-3.23h-5.39v-28.71h12.75c.89,0,1.61-.72,1.61-1.61h0ZM264.89,179.01v2.87h-11.48v-2.87h11.48,0ZM184.51,117.02l21.79,21.79h-21.79v-21.79ZM193.41,117.8l53.46,21.02h-32.47l-20.99-21.02ZM164.41,138.81l14.36-19.9v19.9h-14.36ZM195.99,197.93l-8.15-8.15,8.15-8.15v16.31h0ZM195.99,173.64l-7.44-7.44,7.44-7.29v14.73ZM191.86,177.63l-7.35,7.38v-14.61l7.35,7.23ZM253.41,227.81h-86.13v-5.74h86.13v5.74ZM184.51,216.33v-21.79l11.49,11.49v10.3h-11.49ZM195.99,150.67l-11.49,11.48v-17.6h11.49v6.12Z"/>
</svg>