<?xml version="1.0" encoding="UTF-8"?>
<svg id="_图层_1" data-name="图层 1" xmlns="http://www.w3.org/2000/svg" viewBox="0 0 400 400">
  <defs>
    <style>
      .cls-1 {
        fill: none;
        stroke: #040000;
        stroke-miterlimit: 10;
        stroke-width: .6px;
      }

      .cls-2 {
        fill: #323333;
        stroke-width: 0px;
      }
    </style>
  </defs>
  <rect class="cls-1" x="119.95" y="80.04" width="179.96" height="179.96" rx="5.71" ry="5.71"/>
  <path class="cls-2" d="M257.92,176.44c-.6-.27-1.24-.45-1.9-.54-1.09,0-2.08.67-2.49,1.68-.38,4.29-.45,8.6-.22,12.91l-8.13,4.07-8.13-4.07v-17.49c-.12-1.49-1.42-2.61-2.92-2.49-.42.03-.82.16-1.18.38-2.71,1.63-1.3,1.52-1.3-3.12h2.71c4.49-.05,8.1-3.73,8.05-8.22-.03-2.41-1.12-4.68-2.98-6.2.21-.59.32-1.22.33-1.84,0-4.75.7-8.13-2.71-10.09v-3.47c0-12.42-9.35-22.86-21.69-24.24v-5.59c0-1.5-1.21-2.71-2.71-2.71h-10.85c-1.5,0-2.71,1.21-2.71,2.71h0v5.59c-12.35,1.38-21.69,11.82-21.69,24.24v3.47c-1.67.96-2.7,2.74-2.71,4.66-.25,2.43-.13,4.88.35,7.27-3.47,2.85-3.98,7.97-1.13,11.45,1.53,1.86,3.8,2.95,6.2,2.98h2.71c0,5.57,1.91,10.97,5.42,15.29v7.19l-26.19,9.25c-11.93,4.21-19.91,15.49-19.9,28.15v5.21c0,1.5,1.21,2.71,2.71,2.71s2.71-1.21,2.71-2.71h0v-5.21c0-10.35,6.51-19.57,16.27-23.02l8.13-2.87v8.13c-3.36,1.94-5.43,5.53-5.42,9.41v13.56c0,1.5,1.21,2.71,2.71,2.71s2.71-1.21,2.71-2.71v-13.56c0-3,2.43-5.42,5.42-5.42h47.99c1.47,1.59,3.13,3,4.93,4.2,4.93,2.98,4.01,7.29,4.01,14.78,0,1.5,1.21,2.71,2.71,2.71s2.71-1.21,2.71-2.71c0-7.59,1.03-14.8-6.53-19.33-10.06-6.75-12.74-20.38-5.99-30.44,1.22-1.81,2.7-3.44,4.39-4.81v13.91c0,2.22.98,2.17,12.34,7.84.77.39,1.67.39,2.44,0,11.14-5.56,12.34-5.61,12.34-7.84v-9.22c8.13,5.11,10.57,15.84,5.47,23.96-1.31,2.09-3.06,3.87-5.11,5.24-9.14,6.13-8.49,8.79-8.49,20.69,0,1.5,1.21,2.71,2.71,2.71s2.71-1.21,2.71-2.71c0-13.56-.7-10.85,7.59-17.33,3.63,6.32,3.25,11.09,3.25,17.33,0,1.5,1.21,2.71,2.71,2.71s2.71-1.21,2.71-2.71c0-7.1.41-13.34-4.75-21.31,7.69-9.96,5.85-24.26-4.11-31.95-1.68-1.3-3.54-2.36-5.51-3.14ZM218.85,201.74c.59,2.35,1.5,4.6,2.71,6.7h-8.43l5.72-6.7ZM207.22,206.98l-13.56-15.81v-3.12c7.51,5.02,17.18,5.48,25.14,1.19-1.71,7.51,2.68,1.08-11.58,17.73ZM188.24,156.92h37.96v10.85c0,10.48-8.5,18.98-18.98,18.98-10.48,0-18.98-8.5-18.98-18.98h0v-10.85ZM234.33,162.34h-2.71v-5.42h2.71c1.5,0,2.71,1.22,2.71,2.71,0,1.5-1.21,2.71-2.71,2.71ZM204.5,110.83h5.42v16.27h-5.42v-16.27ZM182.81,137.94c.01-9.43,6.94-17.42,16.27-18.76v10.63c0,1.5,1.21,2.71,2.71,2.71h10.85c1.5,0,2.71-1.21,2.71-2.71v-10.63c9.33,1.35,16.26,9.34,16.27,18.76v2.71h-5.42v-2.71c0-1.5-1.21-2.71-2.71-2.71s-2.71,1.21-2.71,2.71v2.71h-27.12v-2.71c0-1.5-1.22-2.71-2.71-2.71-1.5,0-2.71,1.21-2.71,2.71v2.71h-5.42v-2.71ZM180.1,146.08h54.23v5.42h-54.23v-5.42ZM180.1,162.34c-1.5,0-2.71-1.22-2.71-2.71,0-1.5,1.21-2.71,2.71-2.71h2.71v5.42h-2.71ZM190.11,195.34l11.23,13.1h-13.1v-12.45l1.87-.65ZM177.39,199.85l5.42-1.93v10.52h-5.42v-8.6Z"/>
</svg>