<?xml version="1.0" encoding="UTF-8"?>
<svg id="_图层_1" data-name="图层 1" xmlns="http://www.w3.org/2000/svg" viewBox="0 0 400 400">
  <defs>
    <style>
      .cls-1 {
        stroke-width: 0px;
      }
    </style>
  </defs>
  <path class="cls-1" d="M142.74,92c-12.41,0-22.47,10.06-22.47,22.47v89.98c.06,12.36,10.1,22.35,22.47,22.35h61.78c3.1,0,5.62-2.51,5.62-5.62s-2.51-5.62-5.62-5.62h-61.78c-5.08,0-9.53-3.41-10.85-8.32l63.35-38.99,14.89,8.93,78.63-47.18v35.01c0,3.1,2.51,5.62,5.62,5.62s5.62-2.51,5.62-5.62v-50.55c0-12.41-10.06-22.47-22.47-22.47h-134.8ZM184.39,161.73l-52.89,32.54v-64.28l52.89,31.73ZM131.5,116.9v-2.44c0-6.2,5.03-11.23,11.23-11.23h134.8c6.2,0,11.23,5.03,11.23,11.23v2.44l-78.63,47.18-78.63-47.18Z"/>
  <path class="cls-1" d="M280.31,229.82c11.35,0,17.83-9.63,17.83-22.75v-2.36c0-18.02-13.41-34.08-37.23-34.08h-.39c-23.2,0-39.15,15.28-39.15,38.55v2.4c0,24.42,16.15,37.68,37.72,37.68h.49c6.67,0,11.44-.83,13.9-1.97v-8.2c-2.75,1.24-7.56,2.02-13.25,2.02h-.49c-14.98,0-28.88-8.85-28.88-29.82v-1.76c0-18.61,11.88-30.6,29.66-30.6h.45c17.24,0,27.9,11.79,27.9,26.13v1.33c0,10.95-3.64,15.61-7.18,15.61-2.61,0-4.61-1.66-4.61-4.72v-24.6h-10.18v6.39h-.34c-.94-3.35-4.13-7.08-10.72-7.08-8.74,0-14.14,6.23-14.14,15.73v5.93c0,10.02,5.5,16.11,14.15,16.11,5.29,0,10.06-2.55,11.39-7.22h.48c1.33,4.72,6.93,7.28,12.58,7.28M252.75,211.98v-2.55c0-6.13,2.55-8.89,6.44-8.89,3.34,0,6.43,2.16,6.43,7.95v4.12c0,6.44-2.84,8.36-6.34,8.36-3.98,0-6.53-2.42-6.53-8.99h0Z"/>
</svg>