<?xml version="1.0" encoding="UTF-8"?>
<svg id="_图层_1" data-name="图层 1" xmlns="http://www.w3.org/2000/svg" viewBox="0 0 400 400">
  <defs>
    <style>
      .cls-1 {
        fill: none;
        stroke: #040000;
        stroke-miterlimit: 10;
        stroke-width: .6px;
      }

      .cls-2 {
        fill: #323333;
        stroke-width: 0px;
      }
    </style>
  </defs>
  <rect class="cls-1" x="120.02" y="80.31" width="179.98" height="179.98" rx="5.71" ry="5.71"/>
  <rect class="cls-2" x="143.39" y="215.59" width="139.22" height="12.39"/>
  <rect class="cls-2" x="240.9" y="99.84" width="8.38" height="34.65" transform="translate(29.43 282.34) rotate(-63)"/>
  <polygon class="cls-2" points="209.51 169.47 223.59 176.65 239.83 165.64 257.65 130.67 226.77 114.94 208.96 149.91 209.51 169.47"/>
  <path class="cls-2" d="M222.69,178.12l.7-.47-14.08-7.17.02.84,13.36,6.8ZM206.63,185.6c-.68,1.26-.21,2.83,1.05,3.51,1.26.68,2.83.21,3.51-1.05l5.82-10.58-4.62-2.36-5.76,10.47h0ZM172.04,216.22l13.62-8.2-8.71-13.3,14.9,5.53,4.97-15.1,4.97,15.1,14.9-5.53-8.71,13.3,13.61,8.2-16.47,1.54-.12-1.25,12.69-1.19-11.47-6.91,7.34-11.2-12.56,4.66-4.18-12.72-4.19,12.72-12.55-4.66,7.34,11.2-11.47,6.91,12.69,1.19-.12,1.25-16.47-1.54Z"/>
  <path class="cls-2" d="M203.53,215.3l9.94-.93-9.15-5.51,5.85-8.94-10.02,3.72-3.34-10.15-3.34,10.15-10.01-3.72,5.85,8.94-9.15,5.51,9.94.93-.37,3.94-21.92-2.05,15.94-9.6-10.19-15.56,17.44,6.47,5.81-17.67,5.81,17.67,17.44-6.47-10.19,15.56,15.93,9.6-21.92,2.05-.37-3.94Z"/>
</svg>