<?xml version="1.0" encoding="UTF-8"?>
<svg id="_图层_1" data-name="图层 1" xmlns="http://www.w3.org/2000/svg" viewBox="0 0 400 400">
  <defs>
    <style>
      .cls-1 {
        fill: none;
        stroke: #040000;
        stroke-miterlimit: 10;
        stroke-width: .6px;
      }

      .cls-2 {
        fill: #323333;
        stroke-width: 0px;
      }
    </style>
  </defs>
  <rect class="cls-1" x="120.02" y="80.04" width="179.98" height="179.98" rx="5.71" ry="5.71"/>
  <path class="cls-2" d="M256.57,138.5h-100.29c-2.29,0-4.19,2.33-4.19,5.22s1.91,5.2,4.19,5.2h101.61c.32,0,.64-.04,1.07-.15,9.52-1.27,16.76-9.92,16.76-20.19.01-11.23-8.59-20.37-19.15-20.37-2.71,0-4.91,2.33-4.91,5.22-.02,1.36.48,2.67,1.41,3.66.93.97,2.18,1.54,3.5,1.55,5.15,0,9.35,4.47,9.35,9.94s-4.19,9.93-9.36,9.93h.01ZM255.99,202.5h.1s.32.02.32.02c4.91,0,8.91,4.25,8.91,9.45s-4,9.45-8.91,9.45c-2.7,0-4.9,2.34-4.9,5.23-.02,1.35.49,2.66,1.41,3.65.93.98,2.18,1.55,3.5,1.56,10.3,0,18.71-8.92,18.71-19.89s-7.67-19.12-17.54-19.83q-.21-.04-.35-.05h-36.47c-1.58,0-2.95,1.98-2.95,4.52v1.38c0,2.54,1.37,4.51,2.95,4.51h35.22ZM155.02,197.28c-.08,2.79,2.12,5.12,4.91,5.21h43.12c2.79-.09,4.99-2.42,4.91-5.21,0-2.86-2.2-5.2-4.9-5.2h-43.13c-2.7,0-4.9,2.34-4.9,5.2h-.01ZM245.03,176.42c2.8-.09,5-2.43,4.91-5.22,0-2.87-2.22-5.21-4.9-5.21h-71.98c-2.69,0-4.9,2.34-4.9,5.22-.08,2.79,2.11,5.12,4.9,5.21h71.97Z"/>
</svg>