<?xml version="1.0" encoding="UTF-8"?>
<svg id="_图层_1" data-name="图层 1" xmlns="http://www.w3.org/2000/svg" viewBox="0 0 400 400">
  <defs>
    <style>
      .cls-1 {
        fill: none;
        stroke: #040000;
        stroke-miterlimit: 10;
        stroke-width: .6px;
      }

      .cls-2 {
        fill: #323333;
        stroke-width: 0px;
      }
    </style>
  </defs>
  <rect class="cls-1" x="120.41" y="80" width="179.59" height="179.59" rx="5.71" ry="5.71"/>
  <g>
    <path class="cls-2" d="M183.17,233.7h54.08c9.34,0,17.83-3.82,23.98-9.98,6.16-6.16,9.98-14.64,9.98-23.98v-54.08c0-9.34-3.82-17.83-9.98-23.98-6.16-6.16-14.64-9.98-23.98-9.98h-54.08c-9.34,0-17.83,3.82-23.98,9.98-6.16,6.16-9.98,14.64-9.98,23.98v54.08c0,9.34,3.82,17.83,9.98,23.98,6.16,6.16,14.64,9.98,23.98,9.98ZM237.25,236.83h-54.08c-10.2,0-19.48-4.17-26.2-10.89-6.72-6.72-10.89-16-10.89-26.2v-54.08c0-10.2,4.17-19.48,10.89-26.2,6.72-6.72,16-10.89,26.2-10.89h54.08c10.2,0,19.48,4.17,26.2,10.89,6.72,6.72,10.89,16,10.89,26.2v54.08c0,10.2-4.17,19.48-10.89,26.2-6.72,6.72-16,10.89-26.2,10.89h0Z"/>
    <path class="cls-2" d="M174.17,218.01h7.22v-24.33h-7.22v24.33ZM181.81,218.84h-8.47v-26h8.89v26h-.42Z"/>
    <path class="cls-2" d="M173.75,195.49c-.23,0-.42-.19-.42-.42s.19-.42.42-.42h8.06c.23,0,.42.19.42.42s-.19.42-.42.42h-8.06ZM173.75,197.89c-.23,0-.42-.19-.42-.42s.19-.42.42-.42h8.06c.23,0,.42.19.42.42s-.19.42-.42.42h-8.06ZM173.75,200.3c-.23,0-.42-.19-.42-.42s.19-.42.42-.42h8.06c.23,0,.42.19.42.42s-.19.42-.42.42h-8.06ZM173.75,205.1c-.23,0-.42-.19-.42-.42s.19-.42.42-.42h8.06c.23,0,.42.19.42.42s-.19.42-.42.42h-8.06ZM173.75,207.5c-.23,0-.42-.19-.42-.42s.19-.42.42-.42h8.06c.23,0,.42.19.42.42s-.19.42-.42.42h-8.06ZM173.75,209.9c-.23,0-.42-.19-.42-.42s.19-.42.42-.42h8.06c.23,0,.42.19.42.42s-.19.42-.42.42h-8.06ZM173.75,212.31c-.23,0-.42-.19-.42-.42s.19-.42.42-.42h8.06c.23,0,.42.19.42.42s-.19.42-.42.42h-8.06ZM173.75,214.71c-.23,0-.42-.19-.42-.42s.19-.42.42-.42h8.06c.23,0,.42.19.42.42s-.19.42-.42.42h-8.06Z"/>
    <path class="cls-2" d="M173.75,202.67c-.23,0-.42-.19-.42-.42s.19-.42.42-.42h10.93c1.03,0,1.33.86,1.33,2.09,0,.74-.11,1.62-.22,2.5-.18,1.47-.37,2.97-.05,3.67.16.36.57.45,1.38.08.21-.1.46,0,.55.21.1.21,0,.46-.21.55-1.37.62-2.1.33-2.48-.49-.42-.92-.22-2.53-.02-4.11.11-.86.22-1.72.22-2.4,0-.74-.11-1.26-.5-1.26h-10.93ZM173.75,216.74c-.23,0-.42-.19-.42-.42s.19-.42.42-.42h8.06c.23,0,.42.19.42.42s-.19.42-.42.42h-8.06ZM170.44,190.38h14.65c.2,0,.38.03.55.09h0c.17.06.32.15.45.27.13.12.21.25.26.39.05.14.06.29.02.44l-.25,1.11c-.06.24-.22.45-.45.6-.23.15-.52.24-.84.24h-14.14c-.32,0-.61-.09-.84-.23-.23-.15-.39-.35-.44-.6l-.26-1.11c-.04-.15-.03-.3.02-.44.05-.14.14-.27.26-.39.12-.12.28-.21.45-.27.17-.06.36-.09.55-.09h0ZM185.09,191.21h-14.65s-.07,0-.1.01c-.03,0-.05.03-.08.05-.02.02-.04.04-.05.07,0,.02,0,.05,0,.08l.26,1.11s.04.08.08.1c.04.02.09.04.15.04h14.14c.06,0,.11-.01.15-.04.04-.02.07-.06.08-.1l.25-1.11s0-.06,0-.08c0-.02-.02-.04-.05-.07-.02-.02-.05-.04-.08-.05h0s-.06-.01-.1-.01h0ZM186.2,221.23h-16.88c-.23,0-.44-.03-.64-.09h0c-.2-.06-.37-.15-.51-.27-.15-.12-.25-.25-.3-.39-.06-.14-.07-.29-.03-.44l.29-1.11c.06-.24.25-.45.51-.6.26-.15.6-.24.97-.24h16.28c.36,0,.7.09.96.23.26.15.45.35.51.6l.3,1.11c.04.15.03.3-.02.44-.06.14-.16.27-.3.39-.14.12-.32.21-.52.27-.2.06-.41.09-.64.09h0ZM169.33,220.4h16.88s.08,0,.11-.01c.03,0,.06-.03.09-.05.03-.02.05-.04.05-.07,0-.02,0-.05,0-.08l-.3-1.11s-.04-.08-.09-.1c-.04-.02-.1-.04-.17-.04h-16.28c-.07,0-.13.01-.17.04-.04.02-.08.06-.09.1l-.29,1.11s0,.06,0,.08c0,.02.03.04.06.07.03.02.06.04.09.05h0s.07.01.11.01ZM184.21,134.2c0,.88.45,1.68,1.18,2.27.76.61,1.81.98,2.98.98s2.22-.38,2.98-.98c.73-.59,1.18-1.39,1.18-2.27s-.45-1.68-1.18-2.27c-.76-.61-1.81-.98-2.98-.98s-2.22.38-2.98.98c-.73.59-1.18,1.39-1.18,2.27ZM184.83,137.16c-.94-.75-1.52-1.8-1.52-2.96s.58-2.21,1.52-2.96c.91-.73,2.16-1.18,3.53-1.18s2.62.45,3.53,1.18c.94.75,1.52,1.8,1.52,2.96s-.58,2.21-1.52,2.96c-.91.73-2.16,1.18-3.53,1.18s-2.62-.45-3.53-1.18Z"/>
    <path class="cls-2" d="M187.2,134.2c0,.52.52.94,1.17.94s1.17-.42,1.17-.94-.52-.94-1.17-.94-1.17.42-1.17.94Z"/>
    <path class="cls-2" d="M187.65,134.2c0,.12.07.23.17.32.13.11.33.17.55.17.22,0,.41-.07.55-.17.11-.09.17-.2.17-.32s-.07-.23-.17-.32c-.13-.11-.33-.17-.55-.17s-.41.07-.55.17c-.11.09-.17.2-.17.32ZM187.26,135.2c-.31-.25-.51-.61-.51-1.01s.19-.76.51-1.01c.29-.23.68-.37,1.1-.37s.82.14,1.1.37c.31.25.51.61.51,1.01s-.19.76-.51,1.01c-.29.23-.68.37-1.1.37s-.82-.14-1.1-.37Z"/>
    <path class="cls-2" d="M169.34,148.38c-.5,0-.96-.08-1.29-.2-.35-.13-.56-.31-.56-.51v-8.72c0-.2.22-.38.56-.51.33-.12.79-.2,1.29-.2h0s17.33,0,17.33,0h0c.29,0,.56,0,.82,0,.86.02,1.56-.13,2.95-.39.52-.11.82-.48,1.16-.65.36-.18.93-.83.94-.94l.86-1.62.02,8.63v.89c0,3.2-4.39,4.24-4.79,4.23-5,.2-13.62-.02-19.28-.02Z"/>
    <path class="cls-2" d="M184.2,134.2v4.14h-.89v-4.14h.89ZM234.93,154.89c1.32-.43,2.35-1.36,2.94-2.51.59-1.15.73-2.52.3-3.85-.43-1.33-1.36-2.35-2.51-2.94-1.15-.59-2.52-.73-3.85-.3-1.32.43-2.35,1.36-2.94,2.51-.58,1.15-.73,2.52-.3,3.85.43,1.33,1.36,2.35,2.51,2.94,1.15.59,2.52.73,3.85.3ZM238.66,152.79c-.69,1.36-1.9,2.45-3.45,2.95-1.56.51-3.18.33-4.53-.36-1.36-.69-2.45-1.9-2.96-3.45-.51-1.56-.33-3.18.36-4.53.69-1.35,1.9-2.45,3.45-2.95,1.56-.51,3.18-.33,4.53.36,1.35.69,2.45,1.9,2.95,3.45.51,1.56.33,3.18-.36,4.53ZM238.53,126.49h0c-.27.28-.55.57-.65.88-.12.36-.26.73-.41,1.12-.15.38-.31.77-.48,1.15l-.82-.36c.17-.39.33-.76.47-1.12.14-.35.27-.71.4-1.08.17-.5.52-.86.86-1.21l.65.62h0Z"/>
    <path class="cls-2" d="M237.26,128.99l-7.64,17.69-.82-.36,7.64-17.69.82.36ZM246.23,154.14c1.33-.43,2.35-1.36,2.94-2.51.58-1.15.73-2.52.3-3.85-.43-1.33-1.36-2.35-2.51-2.94-1.14-.58-2.51-.73-3.83-.31h-.02c-1.32.44-2.35,1.36-2.94,2.51-.58,1.15-.73,2.51-.3,3.83h0c.43,1.34,1.36,2.37,2.51,2.95,1.15.59,2.52.73,3.85.3h0ZM249.97,152.03c-.69,1.35-1.9,2.45-3.45,2.95-1.56.51-3.18.33-4.53-.36-1.35-.69-2.43-1.88-2.94-3.43v-.03c-.52-1.56-.34-3.18.35-4.53.69-1.35,1.88-2.43,3.42-2.94h.03c1.56-.52,3.18-.34,4.53.35,1.35.69,2.45,1.9,2.95,3.45.51,1.56.33,3.18-.36,4.53ZM256.61,133.88c.18-.51.27-1.05.28-1.6,0-.53-.07-1.07-.25-1.6-.42-1.29-1.31-2.3-2.42-2.89-1.11-.59-2.45-.77-3.75-.41l-.98.27c-1.51.62.24-.68.25-.88,1.17-.38,1.95-.45,2.74-.43.76.08,1.49.31,2.16.67,1.31.7,2.36,1.88,2.85,3.4.2.63.3,1.26.29,1.89,0,.65-.12,1.28-.33,1.89l-.85-.29Z"/>
    <path class="cls-2" d="M241.43,144.75l-.51,1.18-.82-.36.51-1.18.82.36Z"/>
    <path class="cls-2" d="M239.5,144.82c1.33-.43,2.35-1.36,2.94-2.51.59-1.15.73-2.52.3-3.85-.43-1.33-1.36-2.35-2.51-2.94-1.15-.59-2.52-.73-3.85-.3-1.33.43-2.35,1.36-2.94,2.51-.58,1.15-.73,2.52-.3,3.85.43,1.33,1.36,2.35,2.51,2.94,1.15.59,2.52.73,3.85.3h0ZM243.23,142.72c-.69,1.36-1.9,2.45-3.45,2.95-1.56.51-3.18.33-4.53-.36-1.35-.69-2.45-1.9-2.95-3.45-.51-1.56-.33-3.18.36-4.53.69-1.36,1.9-2.45,3.45-2.95,1.56-.51,3.18-.33,4.53.36,1.36.69,2.45,1.9,2.95,3.46.51,1.56.33,3.18-.36,4.53h0ZM248.81,126.97l.27-.75c.42-1.15.61-1.67.3-2.66v-.02c-.44-1.32-1.37-2.35-2.51-2.94-1.14-.58-2.51-.73-3.83-.31h-.02c-.39.13-.76.3-1.11.52-.35.22-.67.47-.95.76l-.09.09c-.27.28-.55.57-.66.88-.13.37-.26.75-.41,1.12-.15.38-.31.76-.48,1.15l-.82-.36c.17-.39.33-.76.47-1.12.14-.37.28-.72.4-1.08.17-.5.53-.87.87-1.22l.09-.09c.33-.34.7-.64,1.11-.9.39-.24.82-.44,1.27-.59h.03c1.56-.52,3.18-.34,4.53.35,1.35.69,2.43,1.88,2.94,3.42v.03c.43,1.29.21,1.91-.29,3.27l-.26.73-.85-.29h0Z"/>
    <path class="cls-2" d="M240.45,122.11l-6.26,14.5-.82-.36,6.26-14.5.82.36ZM257.47,134.13l-7.04,16.97-.83-.34,7.04-16.97.83.34ZM249.74,127.07l-6.63,15.98-.83-.34,6.63-15.98.83.34ZM245.83,152.9c.98-.32,1.75-1.01,2.18-1.86.43-.85.54-1.87.22-2.86-.32-.98-1.01-1.75-1.86-2.18-.85-.43-1.87-.54-2.86-.22-.98.32-1.75,1.01-2.18,1.86-.43.85-.54,1.87-.22,2.86.32.98,1.01,1.75,1.86,2.18.85.43,1.87.54,2.86.22ZM248.81,151.44c-.54,1.06-1.48,1.91-2.7,2.31-1.22.4-2.48.26-3.54-.28-1.06-.54-1.91-1.48-2.31-2.7-.4-1.22-.26-2.48.28-3.54.54-1.06,1.48-1.91,2.7-2.31,1.22-.4,2.48-.26,3.54.28,1.06.54,1.91,1.48,2.31,2.7.4,1.22.26,2.48-.28,3.54ZM239.1,143.59c.98-.32,1.75-1.01,2.18-1.86.43-.85.54-1.87.22-2.86-.32-.98-1.01-1.74-1.86-2.18-.85-.43-1.87-.54-2.86-.22-.98.32-1.75,1.01-2.18,1.86-.43.85-.54,1.87-.22,2.86.32.98,1.01,1.75,1.86,2.18.85.43,1.87.54,2.86.22h0ZM242.07,142.13c-.54,1.06-1.48,1.91-2.7,2.31-1.22.4-2.48.26-3.54-.28-1.06-.54-1.91-1.48-2.31-2.7-.4-1.22-.26-2.48.28-3.54.54-1.06,1.48-1.91,2.7-2.31,1.22-.4,2.48-.26,3.54.28,1.06.54,1.91,1.48,2.31,2.7.4,1.22.26,2.48-.28,3.54ZM234.53,153.66c.98-.32,1.75-1.01,2.18-1.86.43-.85.54-1.87.22-2.86-.32-.98-1.01-1.75-1.86-2.18-.84-.43-1.85-.54-2.83-.23h-.03c-.98.33-1.74,1.02-2.18,1.87-.43.84-.54,1.85-.23,2.83v.03c.33.98,1.02,1.75,1.87,2.18.85.43,1.86.54,2.84.23h.01s0,0,0,0ZM237.5,152.2c-.53,1.05-1.47,1.9-2.67,2.3h-.03c-1.22.41-2.48.27-3.54-.27-1.05-.53-1.9-1.47-2.3-2.67v-.03c-.41-1.22-.27-2.48.27-3.54.53-1.05,1.47-1.9,2.67-2.3h.03c1.22-.41,2.48-.27,3.54.27,1.06.54,1.91,1.48,2.31,2.7.4,1.22.26,2.48-.28,3.54h0Z"/>
    <path class="cls-2" d="M234.69,207.34h2.82s0,1.07,0,1.07h-2.82s0-1.07,0-1.07ZM234.69,205.1h2.82v1.07h-2.82v-1.07ZM234.69,202.85h2.82v1.07h-2.82v-1.07ZM234.69,200.61h2.82s0,1.07,0,1.07h-2.82s0-1.07,0-1.07ZM234.69,198.36h2.82s0,1.07,0,1.07h-2.82s0-1.07,0-1.07ZM234.69,196.12h2.82v1.07h-2.82v-1.07ZM238.92,207.34h12.69v1.07h-12.69v-1.07ZM238.92,205.1h12.69s0,1.07,0,1.07h-12.69s0-1.07,0-1.07ZM238.92,202.85h12.69v1.07h-12.69v-1.07ZM238.92,200.61h12.69s0,1.07,0,1.07h-12.69s0-1.07,0-1.07ZM238.92,198.36h12.69s0,1.07,0,1.07h-12.69s0-1.07,0-1.07ZM238.92,196.12h12.69s0,1.07,0,1.07h-12.69s0-1.07,0-1.07ZM208.64,176.53l.27-2.86c.22-2.34,2.87-2.78,4.34-3.76,1.05-.7,1.58-1.59,1.58-2.65,0-.75-.26-1.36-.77-1.83-.52-.47-1.18-.71-2-.71-1.64,0-2.71.83-3.21,2.49h-4.65c1.39-3.73,4.25-5.6,8.57-5.6,2.12,0,3.79.52,5,1.55,1.21,1.04,1.82,2.41,1.82,4.11s-.69,3.34-2.06,4.65c-1.37,1.32-3.27,2.05-5.68,2.19l-1.06,2.42h-2.13ZM205.56,184.12l1.11-5.01h1.8c.81,0,1.5.33,2.01.96.51.63.68,1.38.51,2.17l-.42,1.87h-5.01,0Z"/>
    <path class="cls-2" d="M179.63,169.55c7.79,0,14.84-3.16,19.95-8.26,5.1-5.1,8.26-12.16,8.26-19.95s-3.16-14.84-8.26-19.95c-5.1-5.1-12.16-8.26-19.95-8.26s-14.84,3.16-19.95,8.26c-5.1,5.1-8.26,12.16-8.26,19.95s3.16,14.84,8.26,19.95c5.1,5.1,12.16,8.26,19.95,8.26ZM201.79,163.5c-5.67,5.67-13.51,9.18-22.16,9.18s-16.49-3.51-22.16-9.18c-5.67-5.67-9.18-13.51-9.18-22.16s3.51-16.49,9.18-22.16c5.67-5.67,13.51-9.18,22.16-9.18s16.49,3.51,22.16,9.18c5.67,5.67,9.18,13.51,9.18,22.16s-3.51,16.49-9.18,22.16Z"/>
    <path class="cls-2" d="M240.99,169.77c7.79,0,14.84-3.16,19.95-8.26,5.1-5.1,8.26-12.16,8.26-19.95s-3.16-14.84-8.26-19.95c-5.1-5.1-12.16-8.26-19.95-8.26s-14.84,3.16-19.95,8.26c-5.1,5.1-8.26,12.16-8.26,19.95s3.16,14.84,8.26,19.95c5.1,5.1,12.16,8.26,19.95,8.26ZM263.15,163.73c-5.67,5.67-13.51,9.18-22.16,9.18s-16.49-3.51-22.16-9.18c-5.67-5.67-9.18-13.51-9.18-22.16s3.51-16.49,9.18-22.16c5.67-5.67,13.51-9.18,22.16-9.18s16.49,3.51,22.16,9.18c5.67,5.67,9.18,13.51,9.18,22.16s-3.51,16.49-9.18,22.16ZM179.41,231.06c7.79,0,14.84-3.16,19.95-8.26,5.1-5.1,8.26-12.16,8.26-19.95s-3.16-14.84-8.26-19.95c-5.1-5.1-12.16-8.26-19.95-8.26s-14.84,3.16-19.95,8.26c-5.1,5.1-8.26,12.16-8.26,19.95s3.16,14.84,8.26,19.95c5.1,5.1,12.16,8.26,19.95,8.26ZM201.57,225.02c-5.67,5.67-13.51,9.18-22.16,9.18s-16.49-3.51-22.16-9.18c-5.67-5.67-9.18-13.51-9.18-22.16s3.51-16.49,9.18-22.16c5.67-5.67,13.51-9.18,22.16-9.18s16.49,3.51,22.16,9.18c5.67,5.67,9.18,13.51,9.18,22.16s-3.51,16.49-9.18,22.16Z"/>
    <path class="cls-2" d="M240.77,231.06c7.79,0,14.84-3.16,19.95-8.26,5.1-5.1,8.26-12.16,8.26-19.95s-3.16-14.84-8.26-19.95c-5.1-5.1-12.16-8.26-19.95-8.26s-14.84,3.16-19.95,8.26c-5.1,5.1-8.26,12.16-8.26,19.95s3.16,14.84,8.26,19.95c5.1,5.1,12.16,8.26,19.95,8.26ZM262.93,225.02c-5.67,5.67-13.51,9.18-22.16,9.18s-16.49-3.51-22.16-9.18c-5.67-5.67-9.18-13.51-9.18-22.16s3.51-16.49,9.18-22.16c5.67-5.67,13.51-9.18,22.16-9.18s16.49,3.51,22.16,9.18c5.67,5.67,9.18,13.51,9.18,22.16s-3.51,16.49-9.18,22.16Z"/>
  </g>
</svg>