<?xml version="1.0" encoding="UTF-8"?>
<svg id="_图层_1" data-name="图层 1" xmlns="http://www.w3.org/2000/svg" viewBox="0 0 400 400">
  <defs>
    <style>
      .cls-1 {
        fill: none;
        stroke: #040000;
        stroke-miterlimit: 10;
        stroke-width: .6px;
      }

      .cls-2 {
        fill: #040000;
        stroke-width: 0px;
      }
    </style>
  </defs>
  <rect class="cls-1" x="119.83" y="80.41" width="179.59" height="179.59" rx="5.71" ry="5.71"/>
  <path class="cls-2" d="M273.1,182.6c-2.27-14.44-15.8-23.12-32.7-21.25-7.06.78-19.55,6.66-21.09,2.96-2.69-12.64,13.09-16.31,24.6-16.9,15-.77,20-9.34,12.71-22.32-7.79-13.87-27.33-22.25-40.07-17.18-13.12,5.21-18.55,19.55-14.54,38.69,1.03,4.87,5.77,11.34-1.88,13.39-5.7,1.53-9.48-4.14-10.9-9.87-1.13-4.58-2.32-9.21-2.74-13.89-1.48-16.28-10.34-20.44-24.11-11.1-13.66,9.27-20.5,27.11-14.09,39.3,8.19,15.58,22.2,16.83,37.5,13.45,4.94-1.1,11.61-5.75,13.47,2.12,1.25,5.29-4.53,8.83-10.05,10.95-4.62,1.78-9.13,2.33-13.97,2.57-15.28.75-19.68,8.96-12.21,22.2,7.85,13.91,27.73,22.02,40.27,16.43,14.14-6.3,22.14-22.8,14.83-42.14-.64-3.52-4.88-7.9-.8-9.77,3.9-1.78,7.36,1.22,9.28,3.99,4.51,6.48,6.43,13.53,5.55,21.99-1.1,10.51,4.77,15.58,15.68,13.59,14.23-2.6,27.61-22.27,25.26-37.2h0ZM209.2,175.81c-3.07,0-5.56-2.49-5.56-5.56s2.49-5.56,5.56-5.56,5.56,2.49,5.56,5.56-2.49,5.56-5.56,5.56h0ZM209.2,175.81"/>
</svg>