<?xml version="1.0" encoding="UTF-8"?>
<svg id="_图层_1" data-name="图层 1" xmlns="http://www.w3.org/2000/svg" viewBox="0 0 400 400">
  <defs>
    <style>
      .cls-1 {
        stroke-width: 0px;
      }
    </style>
  </defs>
  <path class="cls-1" d="M120.41,169.79c0-49.59,40.2-89.79,89.79-89.79s89.79,40.2,89.79,89.79-40.2,89.79-89.79,89.79-89.79-40.2-89.79-89.79M204.6,92.09c-7.52,2.29-14.98,9.2-21.18,20.82-2.04,3.86-3.8,7.87-5.25,11.99h26.43v-32.81ZM166.32,124.9c1.87-5.96,4.28-11.74,7.18-17.27,1.95-3.66,4.19-7.16,6.7-10.47-13.9,5.77-25.87,15.4-34.48,27.75h20.6ZM159.79,164.18c.34-9.84,1.55-19.28,3.5-28.06h-24.09c-4.17,8.82-6.67,18.33-7.36,28.06h27.95ZM174.82,136.12c-2.21,9.2-3.48,18.6-3.79,28.06h33.57v-28.06h-29.78ZM215.82,136.12v28.06h33.56c-.31-9.46-1.58-18.86-3.78-28.06h-29.78ZM171.04,175.4c.31,9.46,1.58,18.86,3.78,28.06h29.78v-28.06h-33.56ZM215.82,175.4v28.06h29.78c2.1-8.59,3.43-18.05,3.79-28.06h-33.57ZM178.16,214.69c1.56,4.34,3.31,8.34,5.25,11.99,6.2,11.62,13.67,18.52,21.18,20.82v-32.81h-26.43ZM180.21,242.43c-2.51-3.31-4.75-6.81-6.7-10.47-2.91-5.53-5.31-11.31-7.18-17.27h-20.6c8.6,12.36,20.57,21.99,34.48,27.75M163.29,203.46c-2.03-9.23-3.2-18.62-3.5-28.06h-27.95c.7,9.99,3.27,19.45,7.36,28.06h24.09ZM240.21,242.43c13.91-5.75,25.88-15.38,34.48-27.75h-20.6c-1.87,5.96-4.28,11.74-7.18,17.27-1.95,3.66-4.19,7.16-6.7,10.47M215.82,214.69v32.81c7.52-2.29,14.98-9.2,21.18-20.82,1.95-3.64,3.7-7.64,5.25-11.99h-26.43ZM257.12,203.46h24.09c4.1-8.61,6.67-18.07,7.36-28.06h-27.95c-.3,9.44-1.48,18.83-3.5,28.06M288.57,164.18c-.69-9.73-3.19-19.24-7.36-28.06h-24.09c1.95,8.78,3.17,18.22,3.5,28.06h27.95ZM246.91,107.62c2.77,5.21,5.19,11,7.18,17.27h20.6c-8.6-12.36-20.57-21.99-34.48-27.75,2.45,3.19,4.69,6.71,6.7,10.47M242.25,124.9c-1.46-4.12-3.21-8.12-5.25-11.99-6.2-11.62-13.66-18.52-21.18-20.82v32.81h26.43Z"/>
</svg>