<?xml version="1.0" encoding="UTF-8"?>
<svg id="_图层_1" data-name="图层 1" xmlns="http://www.w3.org/2000/svg" viewBox="0 0 400 400">
  <defs>
    <style>
      .cls-1 {
        stroke-width: .2px;
      }

      .cls-1, .cls-2, .cls-3 {
        fill: none;
      }

      .cls-1, .cls-3, .cls-4 {
        stroke: #040000;
        stroke-miterlimit: 10;
      }

      .cls-2, .cls-5 {
        stroke-width: 0px;
      }

      .cls-3 {
        stroke-width: .6px;
      }

      .cls-5 {
        fill: #040000;
      }

      .cls-4 {
        fill: #fff;
        stroke-width: 3px;
      }
    </style>
  </defs>
  <rect class="cls-2" x="148.1" y="99.57" width="105.46" height="141.07"/>
  <rect class="cls-3" x="119.63" y="79.93" width="180.37" height="180.37" rx="5.71" ry="5.71"/>
  <g>
    <line class="cls-1" x1="141.96" y1="171.81" x2="277.87" y2="171.81"/>
    <line class="cls-1" x1="209.91" y1="103.86" x2="209.91" y2="239.76"/>
    <line class="cls-1" x1="161.87" y1="123.76" x2="257.96" y2="219.86"/>
    <line class="cls-1" x1="257.96" y1="123.76" x2="161.87" y2="219.86"/>
  </g>
  <g>
    <line class="cls-1" x1="142.06" y1="175.37" x2="277.77" y2="168.26"/>
    <line class="cls-1" x1="206.36" y1="103.96" x2="213.47" y2="239.67"/>
    <line class="cls-1" x1="159.42" y1="126.34" x2="260.41" y2="217.28"/>
    <line class="cls-1" x1="255.38" y1="121.32" x2="164.45" y2="222.31"/>
  </g>
  <g>
    <line class="cls-1" x1="142.34" y1="178.92" x2="277.49" y2="164.71"/>
    <line class="cls-1" x1="202.81" y1="104.23" x2="217.02" y2="239.39"/>
    <line class="cls-1" x1="157.11" y1="129.05" x2="262.72" y2="214.58"/>
    <line class="cls-1" x1="252.68" y1="119.01" x2="167.15" y2="224.62"/>
  </g>
  <g>
    <line class="cls-1" x1="142.8" y1="182.44" x2="277.03" y2="161.18"/>
    <line class="cls-1" x1="199.28" y1="104.7" x2="220.54" y2="238.93"/>
    <line class="cls-1" x1="154.94" y1="131.87" x2="264.89" y2="211.75"/>
    <line class="cls-1" x1="249.85" y1="116.84" x2="169.97" y2="226.79"/>
  </g>
  <g>
    <line class="cls-1" x1="143.45" y1="185.94" x2="276.38" y2="157.69"/>
    <line class="cls-1" x1="195.79" y1="105.35" x2="224.04" y2="238.28"/>
    <line class="cls-1" x1="152.93" y1="134.8" x2="266.9" y2="208.82"/>
    <line class="cls-1" x1="246.92" y1="114.82" x2="172.91" y2="228.8"/>
  </g>
  <g>
    <line class="cls-1" x1="144.28" y1="189.4" x2="275.55" y2="154.23"/>
    <line class="cls-1" x1="192.33" y1="106.18" x2="227.5" y2="237.45"/>
    <line class="cls-1" x1="151.07" y1="137.84" x2="268.76" y2="205.79"/>
    <line class="cls-1" x1="243.89" y1="112.97" x2="175.94" y2="230.66"/>
  </g>
  <g>
    <line class="cls-1" x1="145.29" y1="192.81" x2="274.54" y2="150.81"/>
    <line class="cls-1" x1="188.92" y1="107.19" x2="230.91" y2="236.44"/>
    <line class="cls-1" x1="149.37" y1="140.96" x2="270.46" y2="202.66"/>
    <line class="cls-1" x1="240.76" y1="111.27" x2="179.06" y2="232.36"/>
  </g>
  <g>
    <line class="cls-1" x1="146.48" y1="196.16" x2="273.35" y2="147.46"/>
    <line class="cls-1" x1="185.56" y1="108.38" x2="234.27" y2="235.25"/>
    <line class="cls-1" x1="147.84" y1="144.17" x2="271.99" y2="199.45"/>
    <line class="cls-1" x1="237.55" y1="109.74" x2="182.28" y2="233.89"/>
  </g>
  <g>
    <line class="cls-1" x1="147.84" y1="199.45" x2="271.99" y2="144.17"/>
    <line class="cls-1" x1="182.28" y1="109.74" x2="237.55" y2="233.89"/>
    <line class="cls-1" x1="146.48" y1="147.46" x2="273.35" y2="196.16"/>
    <line class="cls-1" x1="234.27" y1="108.38" x2="185.56" y2="235.25"/>
  </g>
  <g>
    <line class="cls-1" x1="149.37" y1="202.66" x2="270.46" y2="140.96"/>
    <line class="cls-1" x1="179.06" y1="111.27" x2="240.76" y2="232.36"/>
    <line class="cls-1" x1="145.29" y1="150.81" x2="274.54" y2="192.81"/>
    <line class="cls-1" x1="230.91" y1="107.19" x2="188.92" y2="236.44"/>
  </g>
  <g>
    <line class="cls-1" x1="151.07" y1="205.79" x2="268.76" y2="137.84"/>
    <line class="cls-1" x1="175.94" y1="112.97" x2="243.89" y2="230.66"/>
    <line class="cls-1" x1="144.28" y1="154.23" x2="275.55" y2="189.4"/>
    <line class="cls-1" x1="227.5" y1="106.18" x2="192.33" y2="237.45"/>
  </g>
  <g>
    <line class="cls-1" x1="152.93" y1="208.82" x2="266.9" y2="134.8"/>
    <line class="cls-1" x1="172.91" y1="114.82" x2="246.92" y2="228.8"/>
    <line class="cls-1" x1="143.45" y1="157.69" x2="276.38" y2="185.94"/>
    <line class="cls-1" x1="224.04" y1="105.35" x2="195.79" y2="238.28"/>
  </g>
  <g>
    <line class="cls-1" x1="154.94" y1="211.75" x2="264.89" y2="131.87"/>
    <line class="cls-1" x1="169.97" y1="116.84" x2="249.85" y2="226.79"/>
    <line class="cls-1" x1="142.8" y1="161.18" x2="277.03" y2="182.44"/>
    <line class="cls-1" x1="220.54" y1="104.7" x2="199.28" y2="238.93"/>
  </g>
  <g>
    <line class="cls-1" x1="157.11" y1="214.58" x2="262.72" y2="129.05"/>
    <line class="cls-1" x1="167.15" y1="119.01" x2="252.68" y2="224.62"/>
    <line class="cls-1" x1="142.34" y1="164.71" x2="277.49" y2="178.92"/>
    <line class="cls-1" x1="217.02" y1="104.23" x2="202.81" y2="239.39"/>
  </g>
  <g>
    <line class="cls-1" x1="159.42" y1="217.28" x2="260.41" y2="126.34"/>
    <line class="cls-1" x1="164.45" y1="121.32" x2="255.38" y2="222.31"/>
    <line class="cls-1" x1="142.06" y1="168.26" x2="277.77" y2="175.37"/>
    <line class="cls-1" x1="213.47" y1="103.96" x2="206.36" y2="239.67"/>
  </g>
  <circle class="cls-4" cx="209.91" cy="171.81" r="50.69"/>
  <circle class="cls-5" cx="210.06" cy="171.44" r="29.63"/>
</svg>