<?xml version="1.0" encoding="UTF-8"?>
<svg id="_图层_1" data-name="图层 1" xmlns="http://www.w3.org/2000/svg" viewBox="0 0 400 400">
  <defs>
    <style>
      .cls-1, .cls-2, .cls-3 {
        stroke: #231815;
      }

      .cls-1, .cls-2, .cls-3, .cls-4 {
        fill: none;
        stroke-miterlimit: 10;
      }

      .cls-2 {
        stroke-width: 2px;
      }

      .cls-3 {
        stroke-width: 1.5px;
      }

      .cls-4 {
        stroke: #040000;
        stroke-width: .6px;
      }
    </style>
  </defs>
  <rect class="cls-4" x="120.02" y="80.31" width="179.69" height="179.69" rx="5.71" ry="5.71"/>
  <path class="cls-3" d="M213.22,206.1l-37.49-37.49c-1.59-1.59-1.92-3.84-.75-5.02l45.58-45.58c1.17-1.17,3.43-.84,5.02.75l42.62,32.36c1.59,1.59,1.92,3.84.75,5.02l-50.71,50.71c-1.17,1.17-3.43.84-5.02-.75Z"/>
  <path class="cls-1" d="M260.76,137.46l-25.18-20.06c-1.59-1.59-1.92-3.84-.75-5.02l12.74-12.74c1.17-1.17,3.43-.84,5.02.75l25.18,20.06c1.59,1.59,1.92,3.84.75,5.02l-12.74,12.74c-1.17,1.17-3.43.84-5.02-.75Z"/>
  <line class="cls-3" x1="182.04" y1="174.92" x2="140.51" y2="216.46"/>
  <line class="cls-3" x1="195.05" y1="187.93" x2="153.51" y2="229.47"/>
  <line class="cls-3" x1="207.86" y1="200.74" x2="166.32" y2="242.27"/>
  <line class="cls-2" x1="254.11" y1="121.49" x2="248.2" y2="127.4"/>
  <circle class="cls-1" cx="212.28" cy="151.01" r="1.33"/>
  <circle class="cls-1" cx="231.48" cy="170.15" r="1.33"/>
</svg>