<?xml version="1.0" encoding="UTF-8"?>
<svg id="_图层_1" data-name="图层 1" xmlns="http://www.w3.org/2000/svg" viewBox="0 0 400 400">
  <defs>
    <style>
      .cls-1 {
        stroke-width: 0px;
      }
    </style>
  </defs>
  <path class="cls-1" d="M209.68,83.76c49.25,0,89.32,32.51,89.32,72.48,0,16-6.2,30.4-19.15,44.59-18.73,21.57-60.63,47.84-70.17,51.86-9.27,3.91-8.19-2.2-7.77-4.61l.03-.2,1.27-7.65c.3-2.28.61-5.82-.29-8.07-1-2.49-4.96-3.78-7.86-4.41-42.93-5.66-74.7-35.68-74.7-71.51,0-39.97,40.08-72.48,89.32-72.48M176.44,169.57h-17.03v-30.9c0-.96-.77-1.74-1.73-1.74h-6.27c-.96,0-1.74.78-1.74,1.74h0v38.92c0,.46.19.89.49,1.19h0s.02.03.02.03l.02.02c.32.32.76.49,1.21.48h25.03c.96,0,1.73-.78,1.73-1.74v-6.25c0-.96-.77-1.75-1.73-1.75h0M185.27,136.93c-.96,0-1.74.78-1.74,1.74h0v38.92c0,.96.78,1.73,1.74,1.73h6.27c.96,0,1.73-.78,1.73-1.73v-38.92c0-.96-.77-1.74-1.73-1.74h-6.27ZM228.4,136.93c-.96,0-1.74.78-1.74,1.74h0v23.11l-17.83-24.07-.15-.17h0s-.11-.12-.11-.12l-.03-.03-.12-.1h-.01l-.06-.04-.03-.02-.06-.03-.09-.06h-.02l-.03-.02-.11-.04-.04-.02-.11-.03h-.06s-.1-.03-.1-.03h-.1s-.04-.01-.04-.01h-.02s-6.41-.01-6.41-.01c-.96,0-1.74.77-1.74,1.73v38.92c0,.96.78,1.73,1.74,1.73h6.25c.97,0,1.75-.78,1.75-1.73v-23.11l17.86,24.12c.13.16.27.3.44.42h.01s.11.08.11.08l.04.02.09.04.08.03.06.02.11.03h.03c.15.04.3.06.45.07h6.25c.97,0,1.75-.78,1.75-1.73v-38.93c0-.96-.78-1.74-1.74-1.74h-6.26ZM270.99,144.93v-6.25c0-.96-.77-1.75-1.73-1.75h-25.03c-.45,0-.88.18-1.21.49h-.01v.02s-.03.03-.03.03c-.31.32-.48.75-.49,1.19v38.92c0,.46.19.89.49,1.19l.02.03.02.02c.33.31.76.48,1.21.48h25.03c.96,0,1.73-.78,1.73-1.74v-6.25c0-.96-.77-1.75-1.73-1.75h-17.04v-6.58h17.03c.96,0,1.73-.78,1.73-1.74v-6.25c0-.96-.77-1.75-1.73-1.75h-17.03v-6.58h17.03c.96,0,1.73-.78,1.73-1.74h.01Z"/>
</svg>