<?xml version="1.0" encoding="UTF-8"?>
<svg id="_图层_1" data-name="图层 1" xmlns="http://www.w3.org/2000/svg" viewBox="0 0 400 400">
  <defs>
    <style>
      .cls-1 {
        fill: #2f3c42;
        stroke-width: 0px;
      }

      .cls-2 {
        fill: none;
        stroke: #040000;
        stroke-miterlimit: 10;
        stroke-width: .6px;
      }
    </style>
  </defs>
  <rect class="cls-2" x="120.02" y="80.04" width="179.96" height="179.96" rx="5.71" ry="5.71"/>
  <path class="cls-1" d="M169.19,230.86c-.5,0-1-.2-1.4-.6l-11-10.9c-.4-.4-.6-.9-.6-1.4v-95.51c0-.5.2-1,.6-1.4l10.6-10.8c.8-.8,2-.8,2.8,0l11.4,10.9c.4.4.6.9.6,1.4v95.61c0,.5-.2,1-.6,1.4l-11,10.9c-.4.3-.9.4-1.4.4ZM160.19,217.26l9,8.9,9-8.9v-94.01l-9.3-8.9-8.7,8.9v94.01ZM210,230.86c-.5,0-1-.2-1.4-.6l-11-10.9c-.4-.4-.6-.9-.6-1.4v-95.51c0-.5.2-1,.6-1.4l10.6-10.8c.8-.8,2-.8,2.8,0l11.4,10.9c.4.4.6.9.6,1.4v95.61c0,.5-.2,1-.6,1.4l-11,10.9c-.4.3-.9.4-1.4.4ZM200.99,217.26l9,8.9,9-8.9v-94.01l-9.3-8.9-8.7,8.9v94.01ZM250.8,230.86c-.5,0-1-.2-1.4-.6l-11-10.9c-.4-.4-.6-.9-.6-1.4v-95.51c0-.5.2-1,.6-1.4l10.6-10.8c.8-.8,2-.8,2.8,0l11.4,10.9c.4.4.6.9.6,1.4v95.61c0,.5-.2,1-.6,1.4l-11,10.9c-.4.3-.9.4-1.4.4ZM241.8,217.26l9,8.9,9-8.9v-94.01l-9.3-8.9-8.7,8.9v94.01Z"/>
  <path class="cls-1" d="M158.19,161.56h-9.7c-1.1,0-2-.9-2-2v-17.1c0-1.1.9-2,2-2h9.7c1.1,0,2,.9,2,2v17.1c0,1.1-.9,2-2,2ZM150.49,157.66h5.7v-13.2h-5.7v13.2ZM198.99,161.56h-18.8c-1.1,0-2-.9-2-2v-17.1c0-1.1.9-2,2-2h18.8c1.1,0,2,.9,2,2v17.1c0,1.1-.9,2-2,2ZM182.19,157.66h14.8v-13.2h-14.8v13.2ZM239.8,161.56h-18.8c-1.1,0-2-.9-2-2v-17.1c0-1.1.9-2,2-2h18.8c1.1,0,2,.9,2,2v17.1c0,1.1-.9,2-2,2ZM223,157.66h14.9v-13.2h-14.9v13.2ZM271.5,161.56h-9.7c-1.1,0-2-.9-2-2v-17.1c0-1.1.9-2,2-2h9.7c1.1,0,2,.9,2,2v17.1c0,1.1-.9,2-2,2ZM263.8,157.66h5.7v-13.2h-5.7v13.2ZM271.5,201.06h-9.7c-1.1,0-2-.9-2-2v-17.1c0-1.1.9-2,2-2h9.7c1.1,0,2,.9,2,2v17.1c0,1.1-.9,2-2,2h0ZM263.8,197.06h5.7v-13.2h-5.7v13.2h0ZM158.19,201.06h-9.7c-1.1,0-2-.9-2-2v-17.1c0-1.1.9-2,2-2h9.7c1.1,0,2,.9,2,2v17.1c0,1.1-.9,2-2,2h0ZM150.49,197.06h5.7v-13.2h-5.7v13.2h0ZM239.8,201.06h-18.8c-1.1,0-2-.9-2-2v-17.1c0-1.1.9-2,2-2h18.8c1.1,0,2,.9,2,2v17.1c0,1.1-.9,2-2,2h0ZM223,197.06h14.9v-13.2h-14.9v13.2h0ZM198.99,201.06h-18.8c-1.1,0-2-.9-2-2v-17.1c0-1.1.9-2,2-2h18.8c1.1,0,2,.9,2,2v17.1c0,1.1-.9,2-2,2h0ZM182.19,197.06h14.8v-13.2h-14.8v13.2h0ZM169.69,157.06c-3.3,0-6.1-2.7-6.1-6.1s2.7-6.1,6.1-6.1,6.1,2.7,6.1,6.1-2.8,6.1-6.1,6.1ZM169.69,146.95c-2.2,0-4.1,1.8-4.1,4.1s1.8,4.1,4.1,4.1,4.1-1.8,4.1-4.1c-.1-2.3-1.9-4.1-4.1-4.1ZM169.69,196.56c-3.3,0-6.1-2.7-6.1-6.1s2.7-6.1,6.1-6.1,6.1,2.7,6.1,6.1c-.1,3.4-2.8,6.1-6.1,6.1ZM169.69,186.46c-2.2,0-4.1,1.8-4.1,4.1s1.8,4.1,4.1,4.1,4.1-1.8,4.1-4.1c-.1-2.3-1.9-4.1-4.1-4.1ZM210,157.06c-3.3,0-6.1-2.7-6.1-6.1s2.7-6.1,6.1-6.1,6.1,2.7,6.1,6.1-2.8,6.1-6.1,6.1ZM210,146.95c-2.2,0-4.1,1.8-4.1,4.1s1.8,4.1,4.1,4.1,4.1-1.8,4.1-4.1-1.9-4.1-4.1-4.1ZM210,196.56c-3.3,0-6.1-2.7-6.1-6.1s2.7-6.1,6.1-6.1,6.1,2.7,6.1,6.1-2.8,6.1-6.1,6.1ZM210,186.46c-2.2,0-4.1,1.8-4.1,4.1s1.8,4.1,4.1,4.1,4.1-1.8,4.1-4.1-1.9-4.1-4.1-4.1ZM250.8,157.06c-3.3,0-6.1-2.7-6.1-6.1s2.7-6.1,6.1-6.1,6.1,2.7,6.1,6.1-2.7,6.1-6.1,6.1ZM250.8,146.95c-2.2,0-4.1,1.8-4.1,4.1s1.8,4.1,4.1,4.1,4.1-1.8,4.1-4.1-1.8-4.1-4.1-4.1ZM250.8,196.56c-3.3,0-6.1-2.7-6.1-6.1s2.7-6.1,6.1-6.1,6.1,2.7,6.1,6.1-2.7,6.1-6.1,6.1ZM250.8,186.46c-2.2,0-4.1,1.8-4.1,4.1s1.8,4.1,4.1,4.1,4.1-1.8,4.1-4.1-1.8-4.1-4.1-4.1Z"/>
</svg>