<?xml version="1.0" encoding="UTF-8"?>
<svg id="_图层_1" data-name="图层 1" xmlns="http://www.w3.org/2000/svg" viewBox="0 0 400 400">
  <defs>
    <style>
      .cls-1, .cls-2, .cls-3, .cls-4 {
        stroke-width: 0px;
      }

      .cls-5 {
        stroke-width: .5px;
      }

      .cls-5, .cls-2, .cls-6 {
        fill: none;
      }

      .cls-5, .cls-6 {
        stroke: #040000;
        stroke-miterlimit: 10;
      }

      .cls-6 {
        stroke-width: .6px;
      }

      .cls-3 {
        fill: #040000;
      }

      .cls-4 {
        fill: #333;
      }
    </style>
  </defs>
  <path class="cls-3" d="M159.02,107.77v2.51h10.22v1c0,.71.28,1.4.79,1.9.5.5,1.19.79,1.9.79l13.84-.94c.71,0,1.4-.28,1.9-.79.5-.5.78-1.19.78-1.9v-1.81h1.25v-2.36h15.32v-2.5h-15.34v-2.36h-1.25v-1.79c0-.71-.28-1.4-.78-1.9-.5-.5-1.19-.79-1.9-.79l-13.84-.94c-.71,0-1.4.28-1.9.79-.5.5-.79,1.19-.79,1.9v1h-10.22v2.64h10.24v5.55h-10.22ZM159.02,107.77"/>
  <path class="cls-4" d="M211.29,238.07c-31.81,0-57.7-25.9-57.7-57.71s25.9-57.7,57.7-57.7,57.7,25.9,57.7,57.7-25.89,57.71-57.7,57.71h0ZM211.29,128.43c-28.64,0-51.93,23.3-51.93,51.93s23.3,51.93,51.93,51.93,51.93-23.3,51.93-51.93-23.3-51.93-51.93-51.93h0ZM211.29,128.43"/>
  <path class="cls-1" d="M266.11,183.25h-109.64c-1.59,0-2.89-1.3-2.89-2.89s1.3-2.89,2.89-2.89h109.64c1.59,0,2.89,1.3,2.89,2.89s-1.3,2.89-2.89,2.89h0ZM266.11,183.25"/>
  <path class="cls-1" d="M210.21,238.07q-.07,0,0,0c-15.29-.29-29.57-6.49-40.25-17.46-1.08-1.15-1.08-2.88,0-4.04,5.41-5.55,11.69-9.88,18.75-12.84.72-.29,1.51-.29,2.24,0,.72.29,1.3.87,1.59,1.59,4.11,10.6,10.89,20.2,19.55,27.63.94.79,1.23,2.09.79,3.25-.43,1.08-1.51,1.88-2.67,1.88h0ZM176.17,218.59c7.36,6.78,16.3,11.18,26.04,12.91-5.84-6.2-10.53-13.42-13.92-21.21-4.4,2.16-8.51,4.9-12.12,8.29h0ZM189.8,157.21c-.36,0-.79-.07-1.15-.22-7.07-3.03-13.34-7.36-18.75-12.84-1.08-1.15-1.08-2.89,0-4.04,10.75-10.96,24.96-17.09,40.25-17.46,1.23-.07,2.31.72,2.74,1.88.43,1.15.07,2.45-.79,3.25-8.73,7.43-15.51,16.95-19.62,27.63-.29.72-.87,1.3-1.59,1.59-.29.14-.72.22-1.08.22h0ZM176.17,142.13c3.68,3.39,7.72,6.13,12.12,8.37,3.39-7.79,8.15-15,13.92-21.21-9.74,1.66-18.68,6.06-26.04,12.84h0ZM250.53,221.48c-.72,0-1.44-.29-2.02-.79-1.15-1.08-1.15-2.96-.07-4.11,9.52-9.74,14.79-22.58,14.79-36.21s-5.27-26.47-14.71-36.21c-1.08-1.15-1.08-2.96.07-4.11,1.15-1.08,2.96-1.08,4.11.07,10.46,10.82,16.3,25.17,16.3,40.25s-5.84,29.43-16.37,40.25c-.58.58-1.3.87-2.09.87h0ZM250.53,221.48"/>
  <path class="cls-1" d="M211.66,238.07c-1.23,0-2.31-.72-2.67-1.88-.43-1.15-.07-2.38.79-3.17,8.8-7.5,15.58-17.17,19.69-27.91.29-.72.87-1.3,1.59-1.59.72-.29,1.51-.29,2.24,0,7.29,3.03,13.85,7.43,19.4,13.13,1.08,1.15,1.08,2.88,0,4.04-10.89,11.11-25.46,17.24-41.04,17.38h0ZM233.73,209.94c-3.46,8.01-8.22,15.36-14.21,21.71,10.03-1.59,19.33-6.06,26.9-13.06-3.82-3.53-8.08-6.42-12.7-8.66h0ZM232.14,157.5c-.36,0-.79-.07-1.15-.22-.72-.29-1.3-.87-1.59-1.59-4.11-10.75-10.89-20.41-19.69-27.91-.94-.79-1.23-2.09-.79-3.17.43-1.15,1.51-1.88,2.67-1.88,15.58.07,30.08,6.28,40.97,17.46,1.08,1.15,1.08,2.89,0,4.04-5.55,5.7-12.05,10.1-19.4,13.13-.22.07-.65.14-1.01.14h0ZM219.52,129.08c5.91,6.35,10.75,13.7,14.21,21.71,4.62-2.24,8.94-5.12,12.7-8.66-7.57-7-16.88-11.47-26.9-13.06h0ZM219.52,129.08"/>
  <path class="cls-1" d="M189.8,209.29c-.36,0-.79-.07-1.15-.22-.72-.29-1.3-.87-1.59-1.59-3.32-8.66-5.05-17.74-5.05-27.05s1.66-18.39,5.05-27.05c.29-.72.87-1.3,1.59-1.59.72-.29,1.51-.29,2.24,0,6.49,2.67,13.34,4.04,20.41,4.04s13.49-1.3,19.76-3.9c.72-.29,1.51-.29,2.24,0,.72.29,1.3.87,1.59,1.59,3.25,8.58,4.91,17.6,4.91,26.76s-1.66,18.25-4.91,26.76c-.29.72-.87,1.3-1.59,1.59-.72.29-1.51.29-2.24,0-6.27-2.6-12.91-3.9-19.76-3.9s-13.92,1.37-20.34,4.11c-.36.36-.79.43-1.15.43h0ZM191.53,158.15c-2.45,7.14-3.68,14.64-3.68,22.22s1.23,15.08,3.68,22.22c6.35-2.31,12.98-3.46,19.76-3.46s12.98,1.08,19.11,3.25c2.38-7.07,3.61-14.5,3.61-22s-1.23-14.93-3.61-22c-6.13,2.16-12.55,3.25-19.11,3.25s-13.49-1.15-19.76-3.46h0ZM191.53,158.15"/>
  <rect class="cls-2" x="155.87" y="97.29" width="105.24" height="140.77"/>
  <rect class="cls-6" x="120.02" y="80.31" width="179.98" height="179.98" rx="5.71" ry="5.71"/>
  <path class="cls-5" d="M268.45,180.43s27.1-75.49-51.82-75.49"/>
</svg>