<?xml version="1.0" encoding="UTF-8"?>
<svg id="_图层_1" data-name="图层 1" xmlns="http://www.w3.org/2000/svg" viewBox="0 0 400 400">
  <defs>
    <style>
      .cls-1 {
        fill: #fff;
      }

      .cls-1, .cls-2 {
        stroke-width: 0px;
      }

      .cls-3 {
        stroke: #323333;
      }

      .cls-3, .cls-4 {
        fill: none;
        stroke-miterlimit: 10;
      }

      .cls-4 {
        stroke: #040000;
        stroke-width: .6px;
      }

      .cls-2 {
        fill: #323333;
      }
    </style>
  </defs>
  <rect class="cls-4" x="120.39" y="80.16" width="179.84" height="179.84" rx="5.71" ry="5.71"/>
  <path class="cls-2" d="M270.92,199.55c4.85-5.03,7.86-11.84,7.86-19.37,0-15.43-12.51-27.96-27.96-27.96-4.42,0-8.59,1.04-12.29,2.87l11.08-11.08.02.02c5.05-5.05,8.2-12.05,8.2-19.76,0-15.43-12.51-27.96-27.96-27.96-7.72,0-14.71,3.13-19.76,8.2l.02.02-34.23,34.21c-5.5,5.11-8.94,12.4-8.94,20.48,0,15.43,12.51,27.96,27.96,27.96,4.35,0,8.46-.98,12.12-2.76l-2.83,2.83.04.04c-5.74,5.13-9.34,12.56-9.34,20.85,0,15.43,12.51,27.96,27.96,27.96,8.46,0,16.02-3.76,21.15-9.68l26.9-26.87h0Z"/>
  <path class="cls-1" d="M268.4,168.74l-22.94,22.93c-2-2.72-4.46-5.07-7.29-6.94l22.87-22.85c2.98,1.65,5.51,4.02,7.36,6.86Z"/>
  <path class="cls-1" d="M244.68,139.1l-21.87,21.83c.04-.57.06-1.15.06-1.72,0-3.87-.8-7.55-2.2-10.9l29.46-29.46c.46,1.72.7,3.53.7,5.42,0,5.77-2.35,11.03-6.14,14.82h0Z"/>
  <path class="cls-1" d="M246.95,112.12l-29.96,29.96c-2-2.55-4.42-4.77-7.16-6.51l29.85-29.83c2.89,1.54,5.38,3.74,7.27,6.38Z"/>
  <path class="cls-1" d="M215.06,109.45c3.77-3.81,9.03-6.16,14.8-6.16.76,0,1.52.04,2.26.11l-29.05,29.05c-2.57-.78-5.31-1.2-8.16-1.2-.57,0-1.15.02-1.72.06l21.87-21.85Z"/>
  <path class="cls-1" d="M172.65,159.21c0-5.8,2.22-11.06,5.83-15.03l1.39-1.39c3.97-3.63,9.23-5.83,15.03-5.83,12.3,0,22.26,9.96,22.26,22.26,0,5.78-2.2,11.04-5.82,14.99l-1.26,1.26c-3.99,3.73-9.33,6.01-15.21,6.01-12.26,0-22.24-9.96-22.24-22.26h0Z"/>
  <path class="cls-1" d="M236.35,164.98l.06.06c3.76-3.59,8.83-5.81,14.43-5.81.94,0,1.89.06,2.79.19l-22.15,22.11c-2.72-.89-5.61-1.35-8.62-1.35-.59,0-1.18.02-1.78.06l15.26-15.25h0Z"/>
  <path class="cls-1" d="M200.59,208.13c0-12.31,9.97-22.28,22.28-22.28s22.28,9.97,22.28,22.28c0,5.49-1.99,10.52-5.27,14.39l-1.36,1.36.06.06c-4.03,3.99-9.58,6.47-15.69,6.47-12.31,0-22.3-9.97-22.3-22.28h0Z"/>
  <path class="cls-1" d="M248.95,198.07l22.35-22.35c.31,1.44.48,2.94.48,4.48,0,5.44-2.11,10.38-5.51,14.1l-15.49,15.49c.04-.54.06-1.09.06-1.65-.02-3.55-.68-6.96-1.89-10.07Z"/>
  <circle class="cls-3" cx="167.08" cy="207.86" r="25.25"/>
</svg>