<?xml version="1.0" encoding="UTF-8"?>
<svg id="_图层_1" data-name="图层 1" xmlns="http://www.w3.org/2000/svg" viewBox="0 0 400 400">
  <defs>
    <style>
      .cls-1 {
        stroke: #323333;
        stroke-linecap: round;
      }

      .cls-1, .cls-2 {
        fill: none;
        stroke-miterlimit: 10;
      }

      .cls-2 {
        stroke: #040000;
        stroke-width: .6px;
      }

      .cls-3 {
        fill: #fff;
      }

      .cls-3, .cls-4 {
        stroke-width: 0px;
      }

      .cls-4 {
        fill: #323333;
      }
    </style>
  </defs>
  <rect class="cls-2" x="120.44" y="80" width="179.56" height="179.56" rx="5.71" ry="5.71"/>
  <g>
    <path class="cls-4" d="M270.87,128.76v41.64c0,4.81-4.12,8.73-9.2,8.73h-13.39c-.24,0-.48-.06-.7-.19-4.13-2.36-9.6-7.29-12.51-17.42h-18.84c-12.3,0-16.76,10.77-16.79,10.87-.8,1.67-7.54,15.59-8.32,16.82-.31.47-.87.73-1.43.64l-34.3-5.53c-.64-.1-1.12-.61-1.19-1.26l-1.84-18.2c0-.1-.01-.19,0-.29.63-6.11,8.4-47.68,8.73-49.44,1.35-7.7,9-12.92,17.04-11.61l17.97,2.9c3.99.64,7.47,2.78,9.76,6.01,2.17,3.06,3.01,6.75,2.37,10.36l-1.01,5.74h0c0,.8.27,1.86,2.35,2.25l23.15-.03.08-1.37c-.04-.34-.23-5.09,2.22-7.7,1.02-1.07,2.36-1.65,3.91-1.65h22.97c4.96.14,8.97,4.05,8.97,8.72h0Z"/>
    <g>
      <path class="cls-3" d="M248.38,174.28h12.09c3.27,0,5.92-2.46,5.92-5.48v-38.76c0-2.92-2.58-5.38-5.74-5.46h-21.33c-.71,0-1.26.23-1.71.7-1.28,1.35-1.4,4.34-1.35,5.36l-.14,2.66c-.04.7-.62,1.25-1.32,1.25h-27.59c-3.05-.53-4.62-2.34-4.57-4.96l.96-5.54c.48-2.66-.15-5.38-1.76-7.65-1.72-2.42-4.34-4.03-7.35-4.51l-16.72-2.7c-6.06-.97-11.82,2.91-12.83,8.67-.08.42-7.41,39.64-8.08,45.68l1.58,15.76,30,4.85c1.25-2.41,4.86-9.8,7.16-14.55.01-.04,4.82-11.7,18.05-11.7h23.1c.61,0,1.13.4,1.28.99,2.32,8.94,6.85,13.29,10.35,15.39Z"/>
      <path class="cls-4" d="M167.21,218.72c0,.15,0,.33-.03.48l-2.55,13.52c-.2,1.16-1.31,1.93-2.45,1.73-1.16-.2-1.93-1.29-1.73-2.45l2.55-13.52c.2-1.16,1.31-1.93,2.45-1.73,1.01.15,1.71,1,1.76,1.97Z"/>
      <path class="cls-4" d="M249.61,177.28v-55.48h4.07v55.48h-4.07Z"/>
      <path class="cls-4" d="M195.27,140.6c0,.98-.66,1.87-1.63,2.13l-22.29,6.08c-1.18.32-2.41-.38-2.73-1.55-.32-1.2.38-2.41,1.55-2.73l22.29-6.08c1.18-.32,2.41.38,2.73,1.55.04.22.08.42.08.6Z"/>
      <path class="cls-4" d="M196.67,126.75c0,.98-.66,1.87-1.63,2.13l-22.29,6.08c-1.18.32-2.41-.38-2.73-1.55-.32-1.2.38-2.41,1.55-2.73l22.29-6.08c1.18-.32,2.41.38,2.73,1.55.04.22.08.42.08.6Z"/>
      <path class="cls-4" d="M186.53,197.2c-1.17,4.68-5.86,18.06-13.4,23.58-.31.23-.7.32-1.08.26l-13.59-2.39c-.37-.06-.71-.28-.92-.6-4.9-7.15-4.45-19.7-3.75-26.56l4.24.54c-.65,6.32-1.15,16.08,2.9,22.56l9.77,1.7c5.87-4.7,10.41-14.05,11.91-20.01l3.94.91Z"/>
      <path class="cls-4" d="M222.12,169.72c0,1.9-.55,3.31-1.63,4.16-2.2,1.74-5.4.34-5.76.18-6.19-3.36-12.97.13-16.62,2l-.41-.48-1.29-2.53.41-.2c3.82-1.97,11.61-5.89,19.02-1.87.52.23,1.27.82,1.92.29.6-.48.89-1.45.47-3.53l-1.31-7.1,3.61-.69,1.3,7.08c.2.98.29,1.88.29,2.68h0Z"/>
    </g>
  </g>
  <line class="cls-1" x1="233.87" y1="187.67" x2="233.87" y2="234.91"/>
  <line class="cls-1" x1="233.87" y1="187.67" x2="218.12" y2="206.85"/>
  <line class="cls-1" x1="233.87" y1="187.67" x2="249.61" y2="206.85"/>
  <line class="cls-1" x1="233.87" y1="239.81" x2="218.12" y2="220.63"/>
  <line class="cls-1" x1="233.87" y1="239.81" x2="249.61" y2="220.63"/>
</svg>