<?xml version="1.0" encoding="UTF-8"?>
<svg id="_图层_1" data-name="图层 1" xmlns="http://www.w3.org/2000/svg" viewBox="0 0 400 400">
  <defs>
    <style>
      .cls-1 {
        stroke: #040000;
        stroke-width: .6px;
      }

      .cls-1, .cls-2 {
        fill: none;
        stroke-miterlimit: 10;
      }

      .cls-2 {
        stroke: #323333;
      }

      .cls-3 {
        fill: #323333;
        stroke-width: 0px;
      }
    </style>
  </defs>
  <rect class="cls-1" x="120.02" y="80" width="179.98" height="180" rx="5.71" ry="5.71"/>
  <path class="cls-2" d="M244.8,132.79c6.46,0,11.7-5.24,11.7-11.7s-5.24-11.7-11.7-11.7-11.7,5.24-11.7,11.7h0c0,6.46,5.24,11.69,11.7,11.7Z"/>
  <path class="cls-3" d="M274.78,207.59c-.09,0-.18,0-.26,0h0s-17.86-.01-17.86-.01v-6.42c0-1.96-.55-3.87-1.6-5.53,2.5-2.71,3.89-6.27,3.89-9.96v-34.57c0-8.12-6.58-14.7-14.7-14.7s-14.7,6.58-14.7,14.7v4.96l-3.04,3.03-8.12-8.12c-.17-.17-.36-.33-.55-.48v-11.32c0-3.1-2.52-5.62-5.62-5.62h-.32c-.97,0-1.93.25-2.77.73h-18.14v4.5h15.31c0,.13-.01.26-.01.38v10.52l.52,3.08-.5,9.66v.12c0,3.1,2.52,5.62,5.62,5.62h.32c1.52,0,2.98-.63,4.03-1.74l5.84,5.84c1.97,1.96,5,2.38,7.43,1.02v5.88h-19.11c-5.67,0-10.27,4.61-10.28,10.28,0,.08,0,.16.01.23,0,.07-.01.15-.01.23v28.68c-.07,5.93,4.68,10.8,10.61,10.87,5.93.07,10.8-4.68,10.87-10.61,0-.09,0-.18,0-.26v-18.85h14.26c-.07.47-.1.94-.1,1.42v17.76c0,5.76,4.67,10.44,10.44,10.44.08,0,.16,0,.22-.01.07,0,.14.01.22.01h27.84c6.01.07,10.94-4.74,11.01-10.75.07-6.01-4.74-10.94-10.75-11.01ZM234.04,151.11c0-5.64,4.56-10.21,10.2-10.21,5.64,0,10.21,4.57,10.21,10.2h0v34.57c0,3.47-1.76,6.69-4.68,8.57,2.65-5.02.72-11.24-4.3-13.88-1.48-.78-3.12-1.19-4.8-1.19h-6.65v-10.04l14.06-14.06c2.44-2.41,2.45-6.34.04-8.78-2.42-2.44-6.35-2.45-8.78-.04-.01.01-.03.03-.04.04l-5.28,5.27v-.46ZM211.91,138.05h.32c.62,0,1.12.51,1.12,1.12v10.02c-.86.09-1.7.36-2.45.79l-.11-.66v-10.15c0-.62.49-1.12,1.11-1.12ZM212.22,163.66h0s-.32,0-.32,0c-.6,0-1.09-.48-1.12-1.08l.08-1.56,2.22,2.22c-.21.26-.53.42-.86.42ZM227.72,169.1c-.32.32-.76.5-1.21.5h0c-.45,0-.89-.18-1.21-.5l-12.51-12.51c-.65-.69-.63-1.77.06-2.42.66-.63,1.7-.63,2.36,0l11.3,11.3,15.99-15.99c.67-.67,1.75-.67,2.42,0s.67,1.75,0,2.42l-17.2,17.21ZM217.14,195.24h0v23.36c0,3.06-2.23,5.67-5.25,6.16v-22.45h-4.5v21.46c-1.72-1.16-2.75-3.1-2.75-5.17v-28.55c.01-.09.02-.19.02-.29v-.13c0-.1-.01-.2-.02-.27.06-3.15,2.63-5.67,5.78-5.67h30.25c3.19,0,5.78,2.59,5.78,5.78s-2.59,5.78-5.78,5.78h-23.54ZM279.94,221.82c-1.16,1.88-3.21,3.02-5.42,3.02h-27.72c-.09-.01-.19-.02-.29-.02h-.12c-.11,0-.2.01-.27.02-3.23-.06-5.82-2.7-5.82-5.93v-17.76c0-.45.05-.89.15-1.32,1.1.23,2.79.54,3.8.54,2.55,0,5.05-.66,7.26-1.93.43.83.65,1.76.65,2.7v10.92h22.35c3.09,0,5.73,2.21,6.28,5.25h-20.2v4.5h19.34Z"/>
  <path class="cls-3" d="M160.91,116.59h-9.81v114.42h36.37v-114.42h-26.56ZM160.91,226.51h-5.32v-105.43h5.32v105.43ZM182.31,226.51h-15.93v-105.43h6.53v33.18h4.08v-33.18h5.33v105.43Z"/>
  <rect class="cls-3" x="185.17" y="112.94" width="17.96" height="4.5" transform="translate(-2.18 226.63) rotate(-60.26)"/>
  <rect class="cls-3" x="187.74" y="123.55" width="16.63" height="4.5" transform="translate(-34.93 155.99) rotate(-40.13)"/>
  <path class="cls-3" d="M189.47,143.25l3.05-3.31,10.72,9.88-3.05,3.31-10.72-9.88ZM188.42,148.87l4.03-2,8.16,16.43-4.03,2-8.16-16.43Z"/>
</svg>