<?xml version="1.0" encoding="UTF-8"?>
<svg id="_图层_1" data-name="图层 1" xmlns="http://www.w3.org/2000/svg" viewBox="0 0 400 400">
  <defs>
    <style>
      .cls-1 {
        fill: #fff;
      }

      .cls-1, .cls-2 {
        stroke-width: 0px;
      }

      .cls-3 {
        fill: none;
        stroke: #040000;
        stroke-miterlimit: 10;
        stroke-width: .6px;
      }

      .cls-2 {
        fill: #323333;
      }
    </style>
  </defs>
  <path class="cls-2" d="M232.5,184.57l-13.41,13.41c-1.23,1.23-1.23,3.24,0,4.47l31.68,31.68c4.93,4.91,12.98,4.93,17.91,0,4.93-4.93,4.93-12.98,0-17.91l-31.68-31.68c-1.26-1.23-3.24-1.23-4.5.03h0Z"/>
  <path class="cls-2" d="M240.85,102.57c-.64,0-1.31.08-1.98.15-19.66,3.08-32.74,21.97-28.63,41.55l-58.25,58.28c-7.43,7.4-7.43,19.45,0,26.83,7.37,7.37,19.48,7.37,26.83,0l58.28-58.28c19.58,4.09,38.49-8.94,41.53-28.63.75-4.73-1.16-7.43-3.65-7.43-1.16,0-2.42.57-3.65,1.77l-6.94,6.94c-7.37,7.37-19.48,7.37-26.85,0-7.43-7.43-7.43-19.45,0-26.85,0,0,3.11-3.11,6.94-6.94,3.47-3.44,1.75-7.43-3.62-7.4h0Z"/>
  <rect class="cls-3" x="119.76" y="80.16" width="180.24" height="180.24" rx="5.71" ry="5.71"/>
  <path class="cls-1" d="M225.93,118.53c-1.72,3.65-2.62,7.68-2.62,11.85,0,7.43,2.88,14.36,8.12,19.61,5.22,5.22,12.18,8.12,19.61,8.12,4.16,0,8.2-.9,11.85-2.65-4.93,4.99-11.56,7.68-18.53,7.68-1.82,0-3.65-.21-5.42-.57-2.85-.62-5.88.28-7.97,2.36l-50.52,50.49c-.26-7.89-6.63-14.24-14.52-14.52l50.47-50.49c2.08-2.08,2.98-5.06,2.36-7.97-1.82-8.71.82-17.68,7.14-23.92h.03Z"/>
  <path class="cls-1" d="M234.54,192.17l28.69,28.69c2.15,2.15,2.15,5.66,0,7.78-2.11,2.11-5.66,2.11-7.78,0l-28.69-28.69,7.78-7.78Z"/>
  <path class="cls-1" d="M156.24,225.69c-7.28-7.28-1.96-19.59,8.12-19.59s15.49,12.32,8.16,19.59c-4.53,4.48-11.8,4.48-16.28,0Z"/>
  <polygon class="cls-2" points="156.2 112.01 147.94 120.25 158.23 134.68 166.87 139.22 187.07 159.43 195.31 151.19 175.15 130.96 170.61 122.33 156.2 112.01 156.2 112.01"/>
</svg>