<?xml version="1.0" encoding="UTF-8"?>
<svg id="_图层_1" data-name="图层 1" xmlns="http://www.w3.org/2000/svg" viewBox="0 0 400 400">
  <defs>
    <style>
      .cls-1 {
        fill: none;
        stroke: #040000;
        stroke-miterlimit: 10;
        stroke-width: .6px;
      }

      .cls-2 {
        fill: #323333;
        stroke-width: 0px;
      }
    </style>
  </defs>
  <rect class="cls-1" x="119.71" y="80.08" width="180.29" height="180.29" rx="5.71" ry="5.71"/>
  <path class="cls-2" d="M274.81,221.79h-7.33v-12.82c5.57-.86,9.68-5.63,9.71-11.27.03-3.94-2-7.62-5.34-9.71l-4.42-31.9c-.04-.21-.12-.41-.24-.58-.15-.52-.34-1.02-.58-1.51l-.34-.44c0-.25-.09-.48-.24-.68l-.39-.49c-.3-.44-.62-.86-.97-1.26l-30.01-39.19c-.07-.28-.15-.56-.24-.83-.82-2.08-2.5-3.71-4.61-4.47-1.93-.78-4.09-.78-6.02,0-2.16.87-3.83,2.64-4.56,4.86l-13.69,15.78c-2.51,1.24-3.61,4.22-2.52,6.8.15.42.36.81.63,1.17l-4.27,4.27c-.25.28-.25.69,0,.97.16.05.33.05.49,0,.16.04.33.04.49,0l4.22-4.27c.36.32.77.58,1.21.78.67.3,1.4.47,2.14.49.66-.02,1.32-.15,1.94-.39,1.29-.51,2.34-1.5,2.91-2.77.26-.6.39-1.24.39-1.89l10.44-11.17h.29l20.49,40.79c.11.4.24.78.39,1.17,0,0,.24.44.39.73l-.78,22.34h-36.08v-33.46c.06-.19.06-.39,0-.58-.1-.17-.21-.34-.34-.49l-7.67-8.21c-.37-.35-.85-.56-1.36-.58h-30.83c-.52-.02-1.01.2-1.36.58l-7.57,7.91c-.29.25-.5.59-.58.97v33.46h-4.86c-6.37-.44-11.89,4.36-12.33,10.73-.44,6.37,4.36,11.89,10.73,12.33h0v12.82h-6.17c-1.96,0-3.54,1.59-3.54,3.54v1.31c0,1.96,1.59,3.54,3.54,3.54h128.87c1.96,0,3.54-1.59,3.54-3.54v-1.36c-.05-1.93-1.62-3.47-3.54-3.5ZM164.69,150.94l4.18-4.42h29.13l4.18,4.42h-37.49ZM162.26,154.68h42.29v31.08h-42.29v-31.08ZM153.81,190.66h111.68c3.86,0,6.99,3.13,6.99,6.99,0,.02,0,.03,0,.05.03,3.06-1.94,5.78-4.86,6.7v-1.8c2.73-1.03,4.11-4.09,3.08-6.82-1.03-2.73-4.09-4.11-6.82-3.08-2.73,1.03-4.11,4.09-3.08,6.82.54,1.42,1.66,2.55,3.08,3.08v2.09h-108.23v-2.09c2.71-1.02,4.08-4.04,3.06-6.75-1.02-2.71-4.04-4.08-6.75-3.06-2.71,1.02-4.08,4.04-3.06,6.75.53,1.42,1.65,2.53,3.06,3.06v1.8c-3.03-.81-5.14-3.56-5.15-6.7-.03-3.86,3.08-7.01,6.94-7.04.02,0,.03,0,.05,0ZM155.65,209.12h108.14v12.67h-108.14v-12.67ZM247.23,155.17c.98-2.24,2.82-3.99,5.1-4.86,1.06-.4,2.17-.61,3.3-.63,1.28.02,2.55.28,3.74.78,1.07.5,2.04,1.19,2.86,2.04l1.26,1.6c.29.48.54.98.73,1.51.92,2.26.92,4.78,0,7.04-.95,2.17-2.68,3.91-4.86,4.86-2.27.94-4.82.94-7.09,0-4.67-1.96-6.87-7.34-4.91-12.01.02-.04.04-.08.05-.12l-.19-.19ZM224.95,108.99c.6-.23,1.25-.35,1.89-.34.73,0,1.46.15,2.14.44,1.28.55,2.28,1.6,2.77,2.91.53,1.29.53,2.74,0,4.03-.58,1.26-1.62,2.26-2.91,2.77-2.7,1.11-5.8-.19-6.9-2.89-.55-1.33-.53-2.83.06-4.15.59-1.27,1.65-2.27,2.96-2.77ZM212.37,129.24c-.56-.9-1.37-1.61-2.33-2.04h-.68l9.71-11.36c.07.38.17.75.29,1.12.45,1.07,1.11,2.05,1.94,2.86l-8.93,9.42Z"/>
  <path class="cls-2" d="M255.63,165.51c.82-.02,1.62-.19,2.38-.49,3.38-1.31,5.05-5.1,3.75-8.48,0,0,0-.01,0-.02-.62-1.61-1.86-2.91-3.45-3.59-3.3-1.48-7.18,0-8.66,3.31-.71,1.6-.76,3.41-.13,5.04.98,2.53,3.4,4.21,6.12,4.22h0ZM186.1,162.7h-3.74l-4.08,7.04,1.89,3.2,5.92-10.25ZM179.5,177.94h3.74l4.03-6.99-1.85-3.25-5.92,10.25Z"/>
</svg>