<?xml version="1.0" encoding="UTF-8"?>
<svg id="_图层_1" data-name="图层 1" xmlns="http://www.w3.org/2000/svg" viewBox="0 0 400 400">
  <defs>
    <style>
      .cls-1 {
        fill: #fff;
      }

      .cls-1, .cls-2 {
        stroke-width: 0px;
      }

      .cls-3 {
        fill: none;
        stroke: #040000;
        stroke-miterlimit: 10;
        stroke-width: .6px;
      }

      .cls-2 {
        fill: #323333;
      }
    </style>
  </defs>
  <rect class="cls-3" x="120.02" y="80.04" width="179.96" height="179.96" rx="5.71" ry="5.71"/>
  <g>
    <path class="cls-2" d="M250.02,170.38l-23.03-18.69v-20.35l23.03-18.69,25.96,24.34,4.37-4.6-30.33-29.38-23.03,19.54v-14.37h-29.64v17.18h-27.78c-9.19,0-16.67,7.48-16.67,16.67,0,.63.04,1.24.11,1.85.03.24.07.48.11.72.24,1.53.69,3.02,1.34,4.43l13.68,45.13c-13.58,1.81-24.1,13.44-24.1,27.51v12.97h101.87v-12.97c0-15.32-12.46-27.78-27.78-27.78h-17.05l-11.69-35.19h7.98v16.16h29.64v-14.63l23.03,19.54,29.81-27.51-4.69-4.82-25.11,22.95Z"/>
    <path class="cls-1" d="M222.09,200.53c8.65,0,18.45,12.5,18.45,26.49v2.13h-91.72v-2.13c0-12.18,8.78-26.49,18.47-26.49h54.8Z"/>
    <path class="cls-1" d="M192.74,193.89h-16.49l-10.68-35.24c.36.02.72.06,1.08.06h14.39l11.69,35.19Z"/>
    <path class="cls-1" d="M170.79,152.26c-5.83,0-10.57-4.74-10.57-10.57s4.74-10.57,10.57-10.57h47.16v21.14h-47.16,0Z"/>
    <rect class="cls-1" x="204.04" y="113.88" width="16.69" height="55.57"/>
  </g>
</svg>