<?xml version="1.0" encoding="UTF-8"?>
<svg id="_图层_1" data-name="图层 1" xmlns="http://www.w3.org/2000/svg" viewBox="0 0 400 400">
  <defs>
    <style>
      .cls-1 {
        fill: none;
        stroke: #040000;
        stroke-miterlimit: 10;
        stroke-width: .6px;
      }

      .cls-2 {
        fill: #323333;
        stroke-width: 0px;
      }
    </style>
  </defs>
  <rect class="cls-1" x="119.92" y="80.31" width="180.08" height="178.99" rx="5.71" ry="5.71"/>
  <path class="cls-2" d="M266.36,122.38c.86-.73.96-2.01.23-2.86-.73-.85-2.02-.95-2.88-.23l-4.41,3.74c-.86.73-.96,2.01-.23,2.86s2.02.95,2.88.23h0l4.41-3.74ZM257.46,164.37v2.5c0,1.12.91,2.03,2.04,2.03s2.04-.91,2.04-2.03v-2.5c0-1.12-.91-2.03-2.04-2.03s-2.04.91-2.04,2.03ZM154.29,206.31c-2.13,2.12-2.13,5.56,0,7.67,2.13,2.12,5.58,2.12,7.71,0,2.13-2.12,2.13-5.56,0-7.67-2.13-2.12-5.58-2.12-7.71,0ZM159.11,211.11c-.53.53-1.4.53-1.94,0,0,0,0,0,0,0-.53-.53-.53-1.4,0-1.93.53-.53,1.4-.53,1.94,0,0,0,0,0,0,0,.53.53.53,1.39,0,1.93ZM177.99,198.07c2.13-2.12,2.13-5.55,0-7.67-2.13-2.12-5.58-2.12-7.71,0-2.13,2.12-2.13,5.55,0,7.67,2.13,2.12,5.58,2.12,7.71,0ZM173.17,193.27c.53-.53,1.4-.53,1.94,0,0,0,0,0,0,0h0c.53.53.54,1.39,0,1.93,0,0,0,0,0,0-.53.53-1.4.53-1.94,0,0,0,0,0,0,0-.53-.53-.54-1.39,0-1.93,0,0,0,0,0,0ZM163.82,199.48c-.8.79-.8,2.08,0,2.87h0s2.15,2.14,2.15,2.14c.38.38.9.6,1.44.59,1.13,0,2.04-.91,2.04-2.03,0-.54-.21-1.06-.6-1.44l-2.15-2.14c-.8-.79-2.09-.79-2.89,0ZM206.98,133.21h9.5c1.13,0,2.04-.91,2.04-2.03s-.91-2.03-2.04-2.03h-9.5c-1.13,0-2.04.91-2.04,2.03s.91,2.03,2.04,2.03Z"/>
  <path class="cls-2" d="M277.58,236.21h-33.92v-8.13c0-2.1-1.72-3.82-3.84-3.82h-3.89v-8.78c0-1.75-1.43-3.17-3.18-3.17h-2.56l-9.48-72.85h3.57c2.57,0,4.66-2.08,4.66-4.64v-7.88l21.8,2.33v60.21c0,1.12.91,2.03,2.04,2.03.36,0,.71-.09,1.02-.27,6.04-3.48,10.89-8.96,14.42-16.29.49-1.01.06-2.22-.96-2.71h0c-1.02-.49-2.23-.06-2.72.95,0,0,0,0,0,0-2.54,5.27-5.8,9.45-9.72,12.48v-65.22l13.15-11.16c4.02,23.18,3.83,42.19-.57,56.52-.32,1.08.31,2.2,1.39,2.52,1.06.31,2.18-.28,2.51-1.33,4.66-15.19,4.82-35.23.48-59.57-.21-1.19-1.06-2.19-2.2-2.6s-2.43-.18-3.36.61l-14.01,11.9-59.43-11.53c-1.11-.21-2.18.5-2.39,1.6-.22,1.1.51,2.17,1.61,2.38l58.75,11.4v3.99c-3.28-.35-93.02-9.94-96.05-10.26l.48-.88c3.4-6.16,10.34-9.39,17.27-8.05l11.39,2.21c1.11.22,2.18-.5,2.39-1.6.22-1.1-.51-2.17-1.61-2.38l-11.39-2.21c-8.68-1.68-17.37,2.37-21.63,10.08l-1.96,3.55c-.54.98-.18,2.22.8,2.76.24.13.5.21.77.24l6.53.7v3.8c0,2.48,2.03,4.5,4.53,4.5h2.16v60.17l-8.42,8.38c-.8.79-.8,2.08,0,2.87.8.79,2.09.79,2.89,0l10.76-10.71c2.87-2.85,7.51-2.85,10.38,0,2.86,2.85,2.86,7.48,0,10.33l-17.03,16.94c-2.86,2.85-7.52,2.85-10.38,0-2.86-2.85-2.86-7.48,0-10.33l.5-.5c.8-.79.8-2.08,0-2.87-.8-.79-2.09-.79-2.89,0h0l-.5.5c-4.45,4.43-4.45,11.64,0,16.07.39.39.81.75,1.25,1.08l-5.44,16.64h-3.22c-1.13,0-2.04.91-2.04,2.03,0,1.12.91,2.03,2.04,2.03h135.23c1.13,0,2.04-.91,2.04-2.03s-.91-2.03-2.04-2.03h0ZM231.85,224.26h-40.23v-7.88h40.23v7.88ZM224.52,200.38l-20.91-8.07,18.82-8.06,2.1,16.13ZM221.63,178.12l-16.19-7.78,14.17-7.78,2.02,15.56ZM216.69,140.2l2,15.41-11.34-7.32,9.34-8.09ZM211.18,139.59l-4.88,4.23.55-4.23h4.33ZM205.27,151.78l11.74,7.57-13.7,7.52,1.96-15.09ZM202.45,173.42l16.46,7.91-18.52,7.93,2.06-15.84ZM199.63,195.13l22.16,8.56-15.93,8.61s-.03.02-.04.02h-8.43l2.24-17.19ZM214.37,212.32l10.94-5.91.77,5.91h-11.7ZM224.87,134.82c0,.32-.26.58-.58.58h-25.1c-.32,0-.58-.26-.58-.58v-11.12l26.27,2.81v8.31h0ZM161.83,123.14v-3.36l9.29.99v2.37c0,.24-.2.44-.45.44h-8.4c-.25,0-.45-.2-.45-.44ZM182.93,201.55c4.45-4.43,4.45-11.64,0-16.07-3.97-3.95-10.04-4.33-14.41-1.42v-56.42h2.16c2.5,0,4.53-2.02,4.53-4.5v-1.93l19.31,2.06v11.56c0,2.56,2.09,4.64,4.66,4.64h3.57l-9.48,72.85h-2.56c-1.75,0-3.18,1.42-3.18,3.17v8.78h-3.89c-2.12,0-3.84,1.71-3.84,3.82v8.13h-7.22l-6.01-18.39,16.35-16.27ZM149.85,236.21l4.84-14.82c1.02.29,2.07.43,3.13.43,1.86,0,3.7-.45,5.34-1.32l5.13,15.7h-18.45ZM183.89,236.21v-7.88h55.68v7.88h-55.68Z"/>
</svg>