<?xml version="1.0" encoding="UTF-8"?>
<svg id="_图层_1" data-name="图层 1" xmlns="http://www.w3.org/2000/svg" viewBox="0 0 400 400">
  <defs>
    <style>
      .cls-1 {
        fill: none;
        stroke: #040000;
        stroke-miterlimit: 10;
        stroke-width: .6px;
      }

      .cls-2 {
        fill: #323333;
        stroke-width: 0px;
      }
    </style>
  </defs>
  <rect class="cls-1" x="119.86" y="80.08" width="180.14" height="180.14" rx="5.71" ry="5.71"/>
  <path class="cls-2" d="M171.81,159.84h15.78c2.12,0,3.64,1.58,3.64,3.81v12.05c0,27.59,21.53,50.11,47.92,50.11h14.85v6.66h21.23v-57.72h-21.23v5.71h-15.78c-2.12,0-3.64-1.59-3.64-3.81v-12.05c0-27.59-21.53-50.11-47.92-50.11h-14.85v-6.66h-21.23v57.71h21.22v-5.71h0ZM228.82,176.64c0,5.71,4.25,10.15,9.71,10.15h18.8v32.98h-17.89c-23.05,0-41.85-19.66-41.85-43.76v-12.05c0-5.71-4.25-10.15-9.71-10.15h-18.8v-33.3h17.89c23.05,0,41.85,19.67,41.85,43.77v12.36h0ZM269.46,226.12h-9.1v-45.35h9.1v45.35ZM156.65,113.85h9.1v45.35h-9.1v-45.35Z"/>
</svg>