<?xml version="1.0" encoding="UTF-8"?>
<svg id="_图层_1" data-name="图层 1" xmlns="http://www.w3.org/2000/svg" viewBox="0 0 400 400">
  <defs>
    <style>
      .cls-1 {
        fill: none;
        stroke: #040000;
        stroke-miterlimit: 10;
        stroke-width: .6px;
      }

      .cls-2 {
        fill: #323333;
        stroke-width: 0px;
      }
    </style>
  </defs>
  <rect class="cls-1" x="119.93" y="80.08" width="180.07" height="180.07" rx="5.71" ry="5.71"/>
  <g>
    <path class="cls-2" d="M262.17,208.44h-102.45c-10.53,0-19.1-8.57-19.1-19.1v-20.53c0-10.53,8.57-19.1,19.1-19.1h102.63c10.53,0,19.1,8.57,19.1,19.1v20.7c0,10.35-8.57,18.92-19.28,18.92h0ZM159.72,155.07c-7.5,0-13.74,6.25-13.74,13.74v20.7c0,7.5,6.25,13.74,13.74,13.74h102.63c7.5,0,13.74-6.25,13.74-13.74v-20.7c0-7.5-6.25-13.74-13.74-13.74h-102.63Z"/>
    <path class="cls-2" d="M245.03,182.92h-65.86c-1.43,0-2.68-1.25-2.68-2.68v-13.57c0-1.43,1.25-2.68,2.68-2.68h65.86c1.43,0,2.68,1.25,2.68,2.68v13.57c0,1.61-1.25,2.68-2.68,2.68ZM181.85,177.56h60.51v-8.21h-60.51v8.21ZM187.56,226.65h-17.31c-1.43,0-2.68-1.25-2.68-2.68v-18.21c0-1.43,1.25-2.68,2.68-2.68h17.31c1.43,0,2.68,1.25,2.68,2.68v18.21c0,1.61-1.07,2.68-2.68,2.68ZM172.92,221.29h11.96v-12.85h-11.96v12.85ZM253.78,226.65h-17.31c-1.43,0-2.68-1.25-2.68-2.68v-18.21c0-1.43,1.25-2.68,2.68-2.68h17.31c1.43,0,2.68,1.25,2.68,2.68v18.21c0,1.61-1.25,2.68-2.68,2.68ZM238.96,221.29h11.96v-12.85h-11.96v12.85ZM205.05,136.69h-42.84c-1.43,0-2.68-1.25-2.68-2.68v-17.49c0-1.43,1.25-2.68,2.68-2.68h42.66c1.43,0,2.68,1.25,2.68,2.68v17.67c.18,1.25-1.07,2.5-2.5,2.5ZM164.89,131.33h37.3v-12.14h-37.3v12.14Z"/>
    <path class="cls-2" d="M171.14,154c-1.43,0-2.68-1.25-2.68-2.68v-16.24c0-1.43,1.25-2.68,2.68-2.68s2.68,1.25,2.68,2.68v16.24c0,1.61-1.25,2.68-2.68,2.68ZM196.84,154c-1.43,0-2.68-1.25-2.68-2.68v-16.24c0-1.43,1.25-2.68,2.68-2.68s2.68,1.25,2.68,2.68v16.24c0,1.61-1.25,2.68-2.68,2.68ZM224.68,137.94h-13.39c-1.43,0-2.68-1.25-2.68-2.68s1.25-2.68,2.68-2.68h13.39c1.43,0,2.68,1.25,2.68,2.68s-1.25,2.68-2.68,2.68Z"/>
    <path class="cls-2" d="M217.9,153.29c-1.43,0-2.68-1.25-2.68-2.68v-15.35c0-1.43,1.25-2.68,2.68-2.68s2.68,1.25,2.68,2.68v15.35c0,1.43-1.07,2.68-2.68,2.68ZM244.32,137.94h-13.39c-1.43,0-2.68-1.25-2.68-2.68s1.25-2.68,2.68-2.68h13.39c1.43,0,2.68,1.25,2.68,2.68s-1.25,2.68-2.68,2.68h0Z"/>
    <path class="cls-2" d="M237.54,153.29c-1.43,0-2.68-1.25-2.68-2.68v-15.35c0-1.43,1.25-2.68,2.68-2.68s2.68,1.25,2.68,2.68v15.35c0,1.43-1.25,2.68-2.68,2.68Z"/>
    <path class="cls-2" d="M264.67,137.94h-13.39c-1.43,0-2.68-1.25-2.68-2.68s1.25-2.68,2.68-2.68h13.39c1.43,0,2.68,1.25,2.68,2.68s-1.25,2.68-2.68,2.68Z"/>
    <path class="cls-2" d="M258.06,153.29c-1.43,0-2.68-1.25-2.68-2.68v-15.35c0-1.43,1.25-2.68,2.68-2.68s2.68,1.25,2.68,2.68v15.35c0,1.43-1.25,2.68-2.68,2.68Z"/>
  </g>
</svg>