<?xml version="1.0" encoding="UTF-8"?>
<svg id="_图层_1" data-name="图层 1" xmlns="http://www.w3.org/2000/svg" viewBox="0 0 400 400">
  <defs>
    <style>
      .cls-1 {
        stroke: #323333;
      }

      .cls-1, .cls-2 {
        fill: none;
        stroke-miterlimit: 10;
      }

      .cls-2 {
        stroke: #040000;
        stroke-width: .6px;
      }

      .cls-3 {
        fill: #323333;
        stroke-width: 0px;
      }
    </style>
  </defs>
  <rect class="cls-2" x="120.42" y="80" width="179.58" height="179.58" rx="5.71" ry="5.71"/>
  <g>
    <path class="cls-1" d="M258.35,125.01c0,4.3-1.61,8.19-4.21,11.01-2.6,2.82-6.19,4.56-10.16,4.56s-7.56-1.74-10.16-4.56c-2.6-2.82-4.21-6.71-4.21-11.01s1.61-8.19,4.21-11.01c2.6-2.82,6.19-4.56,10.16-4.56s7.56,1.74,10.16,4.56c2.6,2.82,4.21,6.71,4.21,11.01h0Z"/>
    <path class="cls-1" d="M228.46,145.07s2.87-.25,6.2-.52c3.33-.27,7.12-.57,8.96-.66,0,0,2.05-.77,4.45-1.69,2.39-.92,5.12-1.99,6.48-2.59,0,0,2.22-.74,4.71-.23,2.49.51,5.25,2.27,6.34,7.27l5.07,16.58,5.07,16.58s.86,2.55.97,5.39c.11,2.85-.52,5.99-3.52,7.17l-3.98,4.02-3.98,4.02.18.49.18.49,8.42,5.49,8.42,5.49s1.09,1.37,1.63,3.56c.54,2.19.54,5.18-1.63,8.43,0,0-.63,2.25-2.65,3.62-2.01,1.37-5.41,1.86-10.93-1.67l-10.6-6.86-10.6-6.86s-2.44-1.67-4.41-4.15c-1.97-2.48-3.46-5.77-1.56-9.01h-5.8l3.87,8.83,3.87,8.83s.6,2.6-.01,5.59c-.62,2.99-2.46,6.38-7.35,7.95,0,0-1.58.64-3.58.18-1.99-.46-4.39-2.03-6.03-6.45l-5.89-15.51-5.89-15.51s-.72-2.8-.36-5.84c.36-3.04,1.81-6.33,6.15-7.3,4.35-.98,10.09-1.13,14.73-1.04,4.65.1,8.21.44,8.21.44l-1.78-6.37-1.78-6.37-4.25,3.92-4.25,3.92s-.09.93-1.41,1.86c-1.31.93-3.85,1.86-8.74,1.86,0,0-1.81-.34-4.41-.42-2.6-.07-6,.12-9.17,1.2,0,0-.35.19-.92.42-.57.23-1.34.49-2.2.64-1,.18-2.1.21-3.09-.16-1-.36-1.89-1.11-2.47-2.48v-5.5l-2.08-2.26-2.08-2.26-.91-.1-.91-.1-2.81,1.87-2.81,1.87s-.41.63-1.11.98c-.7.34-1.7.39-2.88-.78l-3.44,2.15-3.44,2.15s-.27,1.28-.86,3.24c-.59,1.97-1.5,4.62-2.76,7.37,0,0,.27-.59.41-1.5.13-.91.13-2.14-.41-3.41,0,0-.95,2.4-3.78,4.71-2.83,2.3-7.54,4.51-15.05,4.12,0,0,4.44-1.23,8.78-3.21,4.35-1.99,8.6-4.73,8.23-7.77,0,0-1.13.64-2.35,1.3-1.22.66-2.53,1.35-2.9,1.44-.36.1,3.44-3.24,7.34-6.6,3.9-3.36,7.88-6.75,7.88-6.75l.45-1.47.45-1.47,8.06-5.4,8.06-5.4s.36-.39.79-.54c.43-.15.93-.05,1.2.94.27.98.72,1.81,1.11,2.4.38.59.7.94.7.94,0,0,.45.39.48,1.07.02.68-.38,1.66-2.1,2.84l-1.54,1.08-1.54,1.08,1.45,1.87,1.45,1.87s.5-.3,1.65-.69c1.15-.39,2.96-.89,5.59-1.28l8.42-.79,8.42-.79,2.48-2.94,2.48-2.94s-2.14.44-4.36.25c-2.21-.2-4.49-1.03-4.76-3.59l-3.98-8.23-3.98-8.23-.82.2-.82.2,3.53,8.42,3.53,8.42-.46.59-.46.59s-.54.34-1.61.12c-1.06-.22-2.65-1.01-4.73-3.26l-2.81-6.67-2.81-6.67-1-.1-1-.1-3.89-8.45-3.89-8.45-.27-2.93-.27-2.93s.14-1.37.59-2.89c.45-1.52,1.22-3.18,2.48-3.77l5.62,12.26,5.62,12.26s.27.25.61.05c.34-.2.75-.83,1.01-2.6,0,0,0-.88.66-2.03.66-1.15,1.97-2.57,4.6-3.65,0,0,1.04-.64,2.44-.37,1.4.27,3.17,1.44,4.62,5.07l2.9,6.28,2.89,6.29h0Z"/>
    <path class="cls-3" d="M209.16,178.82c.74,2.26,1.35,4.96,1.6,8.2.25,3.24.13,7.01-.6,11.43,0,0-1.05,3.62-1.96,7.86-.91,4.24-1.68,9.1-1.12,11.57,0,0,.36,2.8,1.61,5.72,1.25,2.92,3.38,5.96,6.91,6.46,0,0,.36.27.54.64.18.37.18.85-.54,1.26,0,0-1.64-.56-3.56-1.74-1.92-1.18-4.13-2.98-5.27-5.47-.68-1.5-1.07-2.79-1.33-4.03-.26-1.24-.38-2.42-.53-3.7-.09-.79-.09-1.81.02-2.92.1-1.11.31-2.33.62-3.54.29-1.15.67-3.3,1.14-5.65.47-2.35,1.02-4.89,1.63-6.83.5-2.27.57-5.15.32-7.79-.25-2.65-.82-5.06-1.59-6.41,0,0-.8-.31-1.5-.91-.7-.6-1.29-1.51-.86-2.69"/>
    <path class="cls-1" d="M142.43,195.7s-.72.2-1.56.74c-.84.54-1.79,1.42-2.24,2.79v30.82s.09,1.03.61,2.16c.52,1.13,1.47,2.36,3.19,2.76h47.82s.86-.2,1.72-.99c.86-.79,1.72-2.16,1.72-4.52v-29.83s-.36-.89-1.02-1.82c-.66-.93-1.61-1.92-2.79-2.11h-23.73s-23.73,0-23.73,0h0Z"/>
  </g>
</svg>