<?xml version="1.0" encoding="UTF-8"?>
<svg id="_图层_1" data-name="图层 1" xmlns="http://www.w3.org/2000/svg" viewBox="0 0 400 400">
  <defs>
    <style>
      .cls-1 {
        stroke: #323333;
      }

      .cls-1, .cls-2 {
        fill: none;
        stroke-miterlimit: 10;
      }

      .cls-2 {
        stroke: #040000;
        stroke-width: .6px;
      }

      .cls-3 {
        fill: #323333;
        stroke-width: 0px;
      }
    </style>
  </defs>
  <rect class="cls-2" x="120.08" y="79.04" width="179.92" height="179.92" rx="5.71" ry="5.71"/>
  <path class="cls-1" d="M241.85,154.64h-60.06c-1.74,0-3.17-1.15-3.17-2.56v-27.55c0-1.41,1.43-2.56,3.17-2.56h60.06c1.74,0,3.17,1.15,3.17,2.56v27.55c0,1.41-1.43,2.56-3.17,2.56h0Z"/>
  <path class="cls-1" d="M251.37,189.77h-79.09c-2.3,0-4.17-1.24-4.17-2.76v-29.62c0-1.52,1.88-2.76,4.17-2.76h79.09c2.3,0,4.17,1.24,4.17,2.76v29.62c0,1.52-1.88,2.76-4.17,2.76h0Z"/>
  <path class="cls-1" d="M168.92,235.5c-1.02.13-2.04-.38-2.55-1.27l-25.97-40.5c-.51-.76-.51-1.78,0-2.55.51-.76,1.27-1.27,2.16-1.27h138.41c1.02,0,1.91.64,2.42,1.53.38,1.02.13,2.04-.64,2.8,0,0-31.74,38.11-40.2,40.76-8.9,1.44-73.64.51-73.64.51Z"/>
  <path class="cls-3" d="M211.93,123.13c-1.4,0-2.55-.82-2.55-1.81v-21.92c0-1,1.15-1.81,2.55-1.81s2.55.82,2.55,1.81v21.92c0,1-1.15,1.81-2.55,1.81Z"/>
  <rect class="cls-1" x="181.65" y="165.17" width="14.42" height="14.42" rx="1.43" ry="1.43"/>
  <rect class="cls-1" x="205.51" y="165.17" width="14.42" height="14.42" rx="1.43" ry="1.43"/>
  <rect class="cls-1" x="192.48" y="131.87" width="12.86" height="12.86" rx="1.27" ry="1.27"/>
  <rect class="cls-1" x="217.1" y="131.87" width="12.86" height="12.86" rx="1.27" ry="1.27"/>
  <rect class="cls-1" x="229.37" y="165.17" width="14.42" height="14.42" rx="1.43" ry="1.43"/>
</svg>