<?xml version="1.0" encoding="UTF-8"?>
<svg id="_图层_1" data-name="图层 1" xmlns="http://www.w3.org/2000/svg" viewBox="0 0 400 400">
  <defs>
    <style>
      .cls-1 {
        stroke: #323333;
      }

      .cls-1, .cls-2 {
        fill: none;
        stroke-miterlimit: 10;
      }

      .cls-2 {
        stroke: #040000;
        stroke-width: .6px;
      }
    </style>
  </defs>
  <rect class="cls-2" x="119.63" y="80.08" width="180.37" height="180.37" rx="5.71" ry="5.71"/>
  <g>
    <path class="cls-1" d="M264.36,185.79c1.95-.41,3.57.41,4.88,1.75,5.03,5.78,7.33,9.41,11.27,14.32.76,1.41,1.94,2.67,2.71,4.07,1.41,2.72.21,5.22-2.72,5.77-8.91,1.83-17.81,3.79-26.72,5.64-3.36.76-6.84,1.63-10.2,2.06-2.07.33-4.24-1.84-3.8-4.23,0,0,2.79-20.71,3.01-22.12.32-1.85,1.52-2.82,3.36-3.26,4.89-.97,16.69-3.68,18.21-4.01Z"/>
    <path class="cls-1" d="M244.42,145.11c1.63,0,2.61.87,3.37,2.28,3.26,5.86,5.88,10.69,9.13,16.55.76,1.41,1.52,2.72,2.29,4.12,1.41,2.72.21,5.22-2.72,5.77-8.81,2.42-27.55,7.41-30.93,8.2-2.07.33-4.24-1.84-3.8-4.23,0,0-.64-23.48-.42-24.89.32-1.85,1.52-2.82,3.36-3.26,4.89-.97,18.2-4.21,19.72-4.54Z"/>
    <path class="cls-1" d="M221.93,180.22l-53.13-40.57c-1.56-1.37-1.93-3.65-.88-5.44l6.73-12.99c.64-.92,1.53-1.63,2.57-2.06l18.63-7.78c1.55-.65,3.33-.43,4.68.56l45.49,33.56"/>
    <line class="cls-1" x1="221.91" y1="151.45" x2="179.58" y2="118.17"/>
    <path class="cls-1" d="M214.52,193.05c1.63,0,2.61.87,3.37,2.28,3.26,5.86,5.88,10.69,9.13,16.55.76,1.41,1.52,2.72,2.29,4.12,1.41,2.72.21,5.22-2.72,5.77-8.91,1.83-17.81,3.79-26.72,5.64-3.36.76-6.84,1.63-10.2,2.06-2.07.33-4.24-1.84-3.8-4.23,0,0,5.35-22.99,5.57-24.4.32-1.85,1.52-2.82,3.36-3.26,4.89-.97,18.2-4.21,19.72-4.54Z"/>
    <path class="cls-1" d="M186.04,227.67l-47.14-40.07c-1.56-1.37-1.93-3.65-.88-5.44l6.73-12.99c.64-.92,1.53-1.63,2.57-2.06l18.63-7.78c1.55-.65,3.33-.43,4.68.56l45.49,33.56"/>
    <line class="cls-1" x1="192.01" y1="199.39" x2="149.68" y2="166.12"/>
  </g>
</svg>