<?xml version="1.0" encoding="UTF-8"?>
<svg id="_图层_1" data-name="图层 1" xmlns="http://www.w3.org/2000/svg" viewBox="0 0 400 400">
  <defs>
    <style>
      .cls-1, .cls-2 {
        fill: none;
      }

      .cls-1, .cls-3 {
        stroke-width: 0px;
      }

      .cls-2 {
        stroke: #040000;
        stroke-miterlimit: 10;
        stroke-width: .6px;
      }

      .cls-3 {
        fill: #040000;
      }
    </style>
  </defs>
  <path class="cls-3" d="M227.45,174.39v-60.16c0-7.8-6.33-14.13-14.13-14.13s-14.13,6.33-14.13,14.13v60.16c-12.42,5.57-20.41,17.91-20.41,31.52,0,19.07,15.47,34.54,34.54,34.54s34.54-15.46,34.54-34.54c0-13.61-7.99-25.96-20.41-31.52ZM213.4,233.04c-13.81,0-25.36-10.51-26.66-24.25s6.63-26.23,20.19-28.82v-66.38c0-2.77,3.69-5.02,6.47-5.02s6.2,3.06,6.2,5.83v65.57h0c13.57,2.59,21.75,15.07,20.45,28.82-1.3,13.75-12.85,24.25-26.66,24.25Z"/>
  <path class="cls-3" d="M213.32,226.96c-10.81,0-19.74-8.42-20.37-19.21-.63-10.79,7.25-20.2,17.99-21.46,1.77-.44,3.63.18,4.78,1.59,1.15,1.41,1.39,3.35.61,5-.78,1.64-2.44,2.69-4.26,2.69v.07c-5.64.65-9.85,5.48-9.73,11.15.12,5.67,4.54,10.32,10.2,10.73,5.66.41,10.7-3.56,11.63-9.16.04-2.49,2.02-4.52,4.51-4.63,2.49-.1,4.63,1.75,4.88,4.24h.13c-.74,10.7-9.64,19-20.36,19h0Z"/>
  <path class="cls-3" d="M213.49,178.07c-.96,0-1.74-.78-1.74-1.74v-59.8c0-.96.78-1.74,1.74-1.74s1.74.78,1.74,1.74v59.8c0,.96-.78,1.74-1.74,1.74h0Z"/>
  <path class="cls-3" d="M185.06,133.04h-28.26c-2.6,0-4.71-1.73-4.71-3.87s2.11-3.87,4.71-3.87h28.26c2.6,0,4.71,1.73,4.71,3.87s-2.11,3.87-4.71,3.87h0Z"/>
  <path class="cls-3" d="M185.06,117.56h-37.68c-2.6,0-4.71-1.73-4.71-3.87s2.11-3.87,4.71-3.87h37.68c2.6,0,4.71,1.73,4.71,3.87s-2.11,3.87-4.71,3.87h0Z"/>
  <path class="cls-3" d="M185.06,164.01h-20.41c-2.6,0-4.71-1.73-4.71-3.87s2.11-3.87,4.71-3.87h20.41c2.6,0,4.71,1.73,4.71,3.87s-2.11,3.87-4.71,3.87h0Z"/>
  <path class="cls-3" d="M185.06,148.52h-36.11c-2.6,0-4.71-1.73-4.71-3.87s2.11-3.87,4.71-3.87h36.11c2.6,0,4.71,1.73,4.71,3.87s-2.11,3.87-4.71,3.87h0Z"/>
  <rect class="cls-1" x="147.99" y="99.96" width="105.17" height="140.68"/>
  <rect class="cls-2" x="120.13" y="80.38" width="179.87" height="179.87" rx="5.71" ry="5.71"/>
</svg>