<?xml version="1.0" encoding="UTF-8"?>
<svg id="_图层_1" data-name="图层 1" xmlns="http://www.w3.org/2000/svg" viewBox="0 0 400 400">
  <defs>
    <style>
      .cls-1 {
        fill: none;
        stroke: #040000;
        stroke-miterlimit: 10;
        stroke-width: .6px;
      }

      .cls-2 {
        fill: #323333;
        stroke-width: 0px;
      }
    </style>
  </defs>
  <rect class="cls-1" x="120" y="80.36" width="180" height="180" rx="5.71" ry="5.71"/>
  <path class="cls-2" d="M265.51,160.8h-3.31c-4.08,0-7.4,3.31-7.4,7.48v1.19h-15.81c-1.11-.43-2.21-.85-3.4-1.19-2.72-.85-4.5-3.4-4.5-6.2v-7.4c0-4.42-3.23-8.07-7.14-8.07v-18.27h31.79c4.51,0,8.25-3.65,8.25-8.25v-2.63c0-4.51-3.66-8.25-8.25-8.25h-85.25c-4.51,0-8.16,3.66-8.16,8.25v2.63c0,4.51,3.65,8.16,8.16,8.25h31.87v18.19h-.85c-3.99,0-7.23,3.65-7.23,8.07v7.73c0,2.8-1.87,5.27-4.5,6.12-.77.25-1.53.51-2.29.85-.26.08-.59.17-.85.17h-15.3v-1.28c0-4.08-3.31-7.48-7.48-7.48h-3.32c-4.08,0-7.39,3.31-7.39,7.48v55.93c0,4.08,3.31,7.39,7.39,7.39h3.32c3.65,0,6.71-2.64,7.31-6.2h15.3c.34,0,.59.08.85.17,8.16,3.06,16.83,4.59,25.58,4.51,8.76.08,17.42-1.45,25.58-4.51.26-.08.6-.17.85-.17h15.47c.6,3.57,3.74,6.2,7.31,6.2h3.31c4.08,0,7.39-3.32,7.48-7.39v-55.84c.09-4.08-3.23-7.48-7.4-7.48ZM165.65,224.12c0,.51-.59.85-1.19.85h-4.62c-.71,0-1.19-.43-1.19-.85v-55.84c0-.51.59-.85,1.19-.85h4.62c.71,0,1.19.43,1.19.85v55.84ZM170.49,122.36c-.94,0-1.7-.95-1.7-2.01v-3.28c0-1.06.76-2.01,1.61-2.01h85.25c.85,0,1.62.85,1.62,2.01v3.28c0,1.16-.77,2.01-1.62,2.01h-85.16ZM217.32,128.34v18.19h-8.5v-18.19h8.5ZM254.55,217.92c0,.34-.09.68-.26.94h-16.57l-.59.25c-7.73,2.98-15.89,4.5-24.14,4.42-8.24.08-16.49-1.44-24.14-4.42l-.59-.25h-16.66c-.17-.26-.34-.6-.26-.94v-40.97c0-.34.08-.6.26-.85h16.57l.59-.26c1.02-.43,1.95-.76,2.98-1.1,5.35-1.7,9.01-6.71,9.01-12.41v-7.73c-.08-.59.17-1.19.68-1.53h22.44c.51.34.68.93.68,1.53v7.39c0,5.7,3.66,10.71,9.1,12.49l3.57,1.28.6.25h16.57c.17.26.25.6.25.85l-.08,41.05ZM267.5,224.12c0,.51-.59.85-1.19.85h-4.62c-.71,0-1.19-.43-1.19-.85v-55.84c0-.51.59-.85,1.19-.85h4.62c.71,0,1.19.43,1.19.85v55.84Z"/>
</svg>