<?xml version="1.0" encoding="UTF-8"?>
<svg id="_图层_1" data-name="图层 1" xmlns="http://www.w3.org/2000/svg" viewBox="0 0 400 400">
  <defs>
    <style>
      .cls-1 {
        fill: none;
        stroke: #040000;
        stroke-miterlimit: 10;
        stroke-width: .6px;
      }

      .cls-2 {
        fill: #323333;
        stroke-width: 0px;
      }
    </style>
  </defs>
  <rect class="cls-1" x="120.11" y="80.36" width="179.89" height="179.89" rx="5.71" ry="5.71"/>
  <path class="cls-2" d="M176.73,123.93c0-2.71-2.2-4.9-4.9-4.9s-4.9,2.2-4.9,4.9v19.62h-9.81v29.43h29.43v-29.43h-9.81v-19.62ZM196.35,192.59c0,6.38,4.12,11.77,9.81,13.83v20.5h9.81v-20.5c5.69-2.01,9.81-7.41,9.81-13.83v-9.81h-29.43v9.81ZM157.11,192.59c0,6.38,4.12,11.77,9.81,13.83v20.5h9.81v-20.5c5.69-2.06,9.81-7.46,9.81-13.83v-9.81h-29.43v9.81h0ZM255.21,143.55v-19.62c0-2.71-2.2-4.9-4.9-4.9s-4.9,2.2-4.9,4.9v19.62h-9.81v29.43h29.43v-29.43h-9.81ZM215.97,123.93c0-2.71-2.2-4.9-4.9-4.9s-4.9,2.2-4.9,4.9v19.62h-9.81v29.43h29.43v-29.43h-9.81v-19.62h0ZM235.59,192.59c0,6.38,4.12,11.77,9.81,13.83v20.5h9.81v-20.5c5.69-2.01,9.81-7.41,9.81-13.83v-9.81h-29.43v9.81h0Z"/>
</svg>