<?xml version="1.0" encoding="UTF-8"?>
<svg id="_图层_1" data-name="图层 1" xmlns="http://www.w3.org/2000/svg" viewBox="0 0 400 400">
  <defs>
    <style>
      .cls-1 {
        stroke-width: 0px;
      }
    </style>
  </defs>
  <path class="cls-1" d="M210.49,108.14h1c9.26.03,56.16.37,68.81,3.77,7.78,2.11,13.85,8.2,15.93,15.99,1.14,4.28,1.94,9.94,2.48,15.79l.11,1.17.25,2.93.09,1.17c.73,10.29.82,19.93.83,22.04v.84c-.01,2.18-.11,12.48-.92,23.2l-.09,1.18-.1,1.17c-.56,6.44-1.4,12.84-2.65,17.55-2.08,7.79-8.15,13.88-15.93,15.99-13.06,3.51-62.71,3.76-69.6,3.77h-1.6c-3.48,0-17.87-.07-32.96-.59l-1.91-.07-.98-.05-1.93-.08-1.93-.08c-12.5-.55-24.4-1.44-29.89-2.93-7.78-2.11-13.85-8.2-15.93-15.98-1.25-4.7-2.08-11.1-2.65-17.55l-.09-1.18-.09-1.17c-.56-7.63-.87-15.28-.92-22.93v-1.39c.02-2.42.11-10.79.72-20.02l.08-1.16.03-.59.09-1.17.25-2.93.11-1.17c.54-5.84,1.34-11.52,2.48-15.79,2.08-7.79,8.15-13.88,15.93-15.99,5.48-1.46,17.39-2.36,29.89-2.93l1.91-.08,1.94-.07.97-.03,1.93-.08c10.72-.34,21.44-.54,32.16-.57h2.17ZM191.9,144.29v54.26l46.81-27.12-46.81-27.14Z"/>
</svg>